<?xml version="1.0" standalone="no"?>
<!DOCTYPE svg PUBLIC "-//W3C//DTD SVG 20010904//EN"
 "http://www.w3.org/TR/2001/REC-SVG-20010904/DTD/svg10.dtd">
<svg version="1.0" xmlns="http://www.w3.org/2000/svg"
 width="2134.000000pt" height="2134.000000pt" viewBox="0 0 2134.000000 2134.000000"
 preserveAspectRatio="xMidYMid meet">
<metadata>
Created by potrace 1.14, written by Peter Selinger 2001-2017
</metadata>
<g transform="translate(0.000000,2134.000000) scale(0.100000,-0.100000)"
fill="#000000" stroke="none">
<path d="M9708 20792 c-29 -4 -37 -16 -15 -25 15 -6 64 18 51 24 -5 3 -21 3
-36 1z"/>
<path d="M9268 20733 c7 -3 16 -2 19 1 4 3 -2 6 -13 5 -11 0 -14 -3 -6 -6z"/>
<path d="M10890 20715 c0 -30 -62 -52 -195 -70 -131 -18 -217 -39 -272 -67
-51 -26 -65 -29 -77 -19 -14 12 -91 17 -126 9 -45 -11 -181 -61 -176 -65 16
-17 99 -11 164 12 94 33 158 33 146 0 -4 -10 -12 -11 -31 -4 -42 16 -68 10
-98 -21 -30 -32 -81 -59 -123 -66 -50 -9 -61 -15 -104 -56 -23 -22 -51 -46
-62 -53 -23 -14 -164 -29 -264 -28 -58 1 -62 -1 -49 -16 8 -9 22 -33 30 -53
15 -35 18 -37 49 -32 l33 6 -35 -24 c-41 -30 -60 -26 -106 18 -41 38 -51 36
-107 -13 -37 -33 -40 -34 -63 -18 -20 13 -24 13 -24 1 0 -8 -14 -25 -31 -37
-30 -21 -158 -69 -185 -69 -21 0 -17 28 6 35 26 8 16 25 -11 20 -11 -2 -54
-27 -95 -54 -42 -28 -82 -52 -90 -52 -8 -1 -20 -2 -26 -4 -7 -1 -28 6 -45 16
-32 18 -33 18 -33 -1 0 -27 -23 -25 -35 2 -12 28 -34 33 -60 15 -18 -14 -18
-15 -1 -42 10 -15 14 -25 10 -23 -46 24 -211 88 -229 88 -2 0 -2 -11 -2 -26 0
-28 -34 -69 -63 -77 -16 -4 -17 -1 -10 17 13 35 -4 51 -50 50 -45 -2 -90 -34
-90 -66 0 -22 1 -22 -45 -2 -30 12 -36 19 -32 36 5 17 -2 14 -31 -15 -20 -20
-54 -43 -74 -52 -34 -14 -42 -14 -74 0 -35 14 -37 14 -72 -15 -125 -99 -338
-113 -412 -27 -20 24 -57 11 -113 -39 l-39 -36 -31 29 c-18 15 -33 28 -34 29
-1 0 28 16 65 36 81 43 267 108 355 124 26 5 28 4 17 -15 -6 -12 -29 -33 -51
-47 -34 -21 -64 -61 -54 -72 2 -2 18 1 37 6 28 8 42 5 77 -13 34 -19 49 -21
74 -14 18 5 33 9 34 9 2 0 3 5 3 11 0 8 -12 10 -35 6 -42 -7 -43 -1 -10 61 41
79 107 138 214 192 67 34 68 51 2 43 -51 -6 -132 -47 -177 -90 -38 -35 -41
-37 -119 -38 -44 -1 -118 -9 -164 -18 -46 -9 -100 -14 -120 -11 -40 6 -78 36
-92 72 l-9 23 -27 -26 c-51 -47 -91 -50 -228 -16 -99 24 -110 22 -110 -14 l0
-30 95 0 c89 0 95 -1 92 -20 -2 -11 -6 -22 -8 -24 -2 -2 -38 -3 -80 -2 -67 1
-80 -1 -101 -21 -32 -30 -46 -14 -31 35 6 20 8 40 4 44 -15 15 -115 -37 -295
-155 -145 -94 -317 -167 -378 -160 -27 3 -27 4 17 30 44 27 44 27 16 28 -17 0
-40 9 -52 21 l-23 21 -22 -21 c-23 -21 -45 -29 -35 -12 4 5 -3 7 -14 4 -11 -3
-39 -28 -62 -57 -53 -66 -88 -96 -112 -96 -18 0 -18 -2 4 -25 26 -28 27 -26
-17 -49 -42 -21 -45 -21 -37 9 6 25 4 24 -57 -18 -35 -24 -107 -69 -159 -101
-452 -278 -565 -361 -661 -487 -31 -39 -51 -32 -26 10 16 27 14 41 -5 41 -16
0 -96 -81 -108 -110 -8 -20 -23 -33 -49 -41 -73 -24 -149 -70 -250 -153 -58
-47 -130 -99 -161 -115 -56 -30 -57 -32 -57 -73 0 -44 -18 -65 -133 -158 -32
-27 -43 -43 -44 -65 -2 -45 -32 -45 -51 1 -13 33 -17 35 -32 23 -10 -8 -72
-59 -139 -114 -66 -55 -135 -112 -154 -127 l-33 -27 -27 29 c-32 34 -45 37
-54 14 -4 -11 1 -22 14 -31 23 -16 18 -33 -10 -33 -11 0 -32 -16 -47 -36 -70
-91 -78 -97 -120 -96 -36 2 -41 -1 -45 -23 -4 -18 0 -26 15 -31 18 -6 17 -8
-13 -20 -18 -8 -48 -16 -66 -18 -28 -4 -52 -23 -127 -103 -231 -244 -370 -403
-552 -628 -31 -38 -62 -77 -70 -87 -7 -9 -63 -83 -125 -165 -61 -81 -118 -156
-126 -166 -7 -9 -14 -20 -14 -23 0 -3 -6 -11 -12 -18 -7 -7 -58 -79 -113 -159
-281 -413 -494 -776 -714 -1217 -105 -212 -134 -274 -206 -441 -20 -46 -43
-97 -50 -114 -152 -340 -402 -1088 -490 -1466 -2 -9 -15 -65 -30 -125 -41
-172 -115 -537 -130 -649 -4 -22 -10 -65 -15 -95 -12 -73 -17 -105 -25 -170
-4 -30 -9 -63 -11 -74 -3 -17 -6 -41 -19 -153 -10 -87 -15 -129 -20 -188 -3
-33 -8 -78 -10 -100 -2 -22 -7 -85 -10 -140 -4 -55 -8 -119 -10 -142 -7 -79
-18 -428 -18 -598 0 -184 12 -592 18 -623 2 -11 6 -66 9 -123 6 -101 12 -166
21 -239 2 -19 7 -64 10 -100 5 -63 9 -97 20 -177 3 -21 7 -58 10 -83 3 -25 7
-56 10 -70 2 -14 7 -45 10 -70 3 -25 11 -72 16 -105 6 -33 13 -73 15 -90 11
-90 83 -440 131 -645 163 -690 399 -1364 693 -1977 87 -181 130 -247 141 -217
10 30 -15 87 -80 182 -62 91 -87 139 -95 188 -4 24 -3 26 7 13 25 -32 45 -30
73 7 45 59 60 62 104 19 53 -51 96 -139 99 -197 1 -27 0 -48 -3 -48 -3 0 -14
20 -24 44 -11 24 -24 46 -30 50 -16 10 -44 -5 -34 -18 24 -31 82 -231 82 -282
0 -4 11 3 25 16 21 20 29 22 43 13 9 -6 16 -20 15 -32 -2 -16 10 -30 42 -53
44 -31 58 -57 33 -59 -16 -2 -49 -6 -65 -7 -17 -2 -17 -42 0 -42 23 0 92 -42
133 -82 32 -31 44 -51 54 -96 43 -199 132 -383 368 -764 56 -90 60 -111 27
-126 -33 -15 -32 -19 47 -127 37 -51 67 -84 75 -81 8 4 13 -3 13 -18 0 -32 25
-51 90 -70 52 -15 56 -19 71 -61 16 -44 16 -44 -5 -33 -11 6 -36 22 -55 36
-40 30 -35 20 32 -66 27 -34 55 -62 62 -62 7 0 24 9 38 20 l26 20 35 -36 36
-37 -6 49 c-4 27 -15 68 -25 92 -15 36 -16 42 -3 42 54 0 187 -128 255 -245
32 -57 30 -69 -7 -34 l-26 24 7 -25 c4 -14 28 -49 54 -78 90 -103 89 -102 67
-117 -18 -14 -18 -15 3 -48 24 -40 73 -75 151 -110 100 -45 134 -94 145 -207
9 -94 24 -145 38 -131 21 21 33 11 52 -45 26 -78 49 -104 90 -104 48 0 62 22
24 39 -33 14 -69 64 -69 94 0 10 5 27 11 39 10 18 12 17 31 -19 26 -49 74 -96
236 -227 142 -115 242 -211 269 -257 19 -32 44 -37 63 -14 11 13 24 3 94 -68
63 -65 128 -114 291 -222 115 -76 236 -164 268 -195 l58 -57 17 25 16 24 13
-37 c7 -20 25 -47 40 -58 27 -22 133 -70 133 -61 0 3 -7 15 -15 27 -8 13 -16
32 -18 43 -1 12 -10 33 -20 47 -14 22 -6 19 56 -21 94 -62 148 -85 201 -86 39
-1 43 -3 35 -18 -6 -10 -16 -18 -24 -18 -8 0 -15 -4 -15 -10 0 -16 66 -41 142
-54 69 -12 74 -14 105 -57 35 -48 40 -65 21 -72 -7 -2 -11 -6 -8 -9 15 -15
461 -278 471 -278 8 0 9 18 4 64 -6 56 -4 66 12 75 23 14 12 22 -82 57 -168
64 -253 127 -276 205 -13 43 -32 50 -51 19 -17 -27 -25 -25 -24 5 2 33 5 34
56 25 123 -23 224 -86 236 -147 6 -29 11 -33 88 -56 119 -37 127 -37 147 -2
23 39 31 88 20 118 -10 25 -69 87 -83 87 -15 0 -8 -27 11 -44 16 -15 18 -23 9
-47 -8 -24 -27 -36 -40 -27 -2 1 -13 -4 -24 -10 -19 -10 -28 -5 -77 43 -54 53
-66 85 -31 85 8 0 11 6 8 15 -9 21 -29 19 -79 -10 l-43 -26 -6 36 c-7 37 -27
52 -63 50 -16 -2 -24 5 -28 25 -3 15 -5 31 -4 36 6 35 -5 51 -49 71 -41 20
-168 97 -197 120 -6 4 -37 28 -70 52 -33 25 -74 56 -91 70 -137 114 -149 122
-141 92 7 -30 -6 -26 -25 7 -18 29 -92 102 -168 163 -39 32 -43 38 -31 53 7 9
19 16 25 16 6 0 -39 51 -100 114 -62 63 -147 162 -190 220 -69 93 -80 104 -94
91 -19 -17 -38 -8 -102 52 -27 25 -58 44 -73 45 -14 0 -31 1 -37 2 -18 1 -59
114 -56 150 2 22 -2 31 -14 34 -13 3 -18 -3 -18 -21 0 -28 -30 -59 -47 -49
-15 9 -38 63 -64 149 -29 93 -68 122 -117 87 -21 -14 -23 -14 -33 13 -5 15
-15 49 -20 74 -13 58 -33 80 -43 47 -5 -20 -10 -14 -31 37 -29 72 -48 89 -123
110 -120 35 -133 51 -137 165 -3 86 -20 128 -62 155 -15 10 -32 22 -38 27 -5
5 -31 22 -58 38 -35 22 -53 42 -68 77 -39 87 -26 74 -114 116 -47 22 -52 28
-117 153 -107 204 -129 250 -158 335 l-27 81 40 51 c40 50 68 77 94 87 9 4 4
18 -17 50 -55 81 -90 176 -90 241 0 32 4 41 22 48 48 18 117 -34 105 -79 -3
-13 8 -34 39 -67 24 -26 44 -52 44 -57 1 -6 19 -29 40 -51 55 -55 73 -98 78
-179 l4 -69 112 -136 c62 -75 136 -167 165 -206 64 -85 98 -127 174 -220 32
-38 65 -79 74 -90 126 -157 312 -336 441 -424 l59 -40 20 21 c31 30 100 35
149 10 76 -39 183 -168 226 -272 9 -20 28 -44 44 -55 33 -21 193 -149 240
-192 17 -15 64 -57 104 -93 40 -36 87 -78 104 -94 123 -113 265 -234 345 -295
74 -56 97 -69 107 -60 8 6 14 18 14 25 0 23 20 16 32 -11 8 -19 8 -28 -2 -40
-10 -12 -10 -15 4 -15 9 0 20 -10 25 -21 6 -17 17 -23 48 -25 22 -2 71 -19
108 -38 73 -40 109 -45 137 -20 14 14 18 14 21 3 16 -58 25 -75 51 -93 27 -20
29 -20 40 -2 6 10 23 34 39 54 15 19 25 38 21 41 -3 3 -22 11 -42 16 -21 6
-37 17 -37 25 0 26 198 19 274 -10 56 -21 61 -25 62 -54 1 -17 2 -44 3 -59 3
-23 0 -28 -16 -24 -23 6 -25 -18 -2 -27 17 -7 91 31 113 58 11 13 17 14 40 2
14 -8 62 -21 106 -30 119 -25 172 -52 201 -102 l24 -41 38 13 c20 7 72 13 115
14 43 0 87 5 98 11 17 9 20 7 17 -7 -2 -12 6 -21 23 -28 39 -13 59 -2 59 34 0
17 6 33 14 36 24 9 7 31 -37 49 -42 17 -87 19 -202 10 -73 -6 -117 7 -149 46
-24 29 -25 29 -36 9 -11 -20 -11 -20 -38 0 -15 11 -47 22 -72 24 -116 11 -132
20 -128 76 2 23 547 23 549 0 2 -30 -3 -55 -15 -62 -6 -5 0 -8 14 -8 14 0 77
-16 140 -36 170 -52 222 -63 311 -59 57 2 58 1 64 -27 7 -32 11 -34 69 -43 49
-7 66 -20 66 -51 0 -34 15 -30 40 11 l22 35 35 -27 c29 -22 47 -27 106 -29 40
-2 91 -6 114 -9 l42 -6 11 40 c13 48 28 60 46 36 12 -16 14 -17 20 -2 3 10 3
24 0 33 -9 24 -82 12 -113 -19 -24 -23 -24 -23 -74 -7 -30 10 -74 16 -110 15
-50 -2 -62 1 -74 17 -10 15 -11 27 -4 46 5 13 7 27 4 30 -3 3 -33 9 -67 14
-47 6 -72 16 -100 39 -35 28 -38 28 -38 9 0 -28 -35 -60 -65 -60 -14 0 -69 21
-123 47 -97 47 -166 62 -203 42 -11 -6 -22 -1 -37 16 -12 13 -18 26 -14 28 4
2 165 3 357 2 l350 -2 189 -86 c103 -48 190 -87 193 -87 3 0 30 -16 61 -35 32
-19 86 -42 122 -50 127 -32 286 -88 380 -135 153 -77 246 -100 307 -75 22 9
35 10 39 3 9 -14 125 -68 147 -68 9 0 17 -4 17 -9 0 -5 -8 -7 -17 -5 -117 25
-280 55 -328 59 -33 3 -71 7 -85 10 -14 2 -54 7 -90 10 -36 4 -76 8 -90 10
-14 2 -43 6 -65 10 -22 3 -68 11 -102 18 -60 13 -63 13 -89 -10 -41 -35 -85
-34 -187 2 -101 37 -134 31 -85 -15 32 -30 111 -50 208 -53 l85 -2 29 -40 c35
-48 76 -86 135 -126 46 -30 60 -27 61 14 0 16 2 16 30 2 16 -8 41 -16 55 -17
29 -3 31 -14 9 -46 -21 -30 -12 -38 20 -17 43 28 106 6 197 -71 23 -19 47 -34
55 -34 18 0 18 31 -1 56 -23 31 -18 35 25 18 27 -11 54 -14 80 -10 46 7 52 -5
18 -41 l-21 -23 62 0 c73 0 131 -23 131 -51 0 -13 -10 -20 -35 -25 -30 -5 -33
-9 -25 -24 9 -17 6 -19 -27 -18 -60 0 -346 -52 -360 -66 -13 -12 48 -24 133
-25 98 -2 115 -4 157 -20 46 -18 33 -38 -35 -54 -84 -19 -210 -13 -325 17 -51
13 -93 20 -93 17 0 -4 7 -17 16 -29 25 -35 72 -55 149 -62 17 -2 16 -3 -5 -9
-14 -4 -24 -12 -23 -17 1 -6 -22 -10 -50 -10 -29 0 -83 -4 -122 -9 -38 -5
-109 -9 -158 -10 l-87 0 -11 -32 c-6 -19 -18 -34 -27 -34 -34 -3 -68 0 -119
12 -58 13 -103 6 -103 -16 0 -11 11 -15 38 -16 93 -2 282 -52 401 -106 38 -17
166 -63 196 -69 67 -15 122 -20 193 -17 63 2 82 -1 93 -13 10 -12 10 -17 0
-23 -21 -14 51 -40 125 -46 141 -12 166 -16 203 -33 37 -18 38 -18 67 4 54 44
146 50 259 18 39 -11 150 -35 185 -40 19 -3 54 2 78 10 42 15 170 41 242 50
144 17 229 26 400 40 36 4 76 8 90 10 14 3 52 7 84 11 32 3 62 7 65 9 3 2 29
7 56 10 63 7 200 41 272 67 51 20 55 20 73 4 16 -14 29 -16 77 -10 94 13 96
13 143 -1 l45 -13 -29 26 -30 25 60 -8 c32 -4 196 -8 364 -9 212 -1 314 -5
334 -14 37 -15 24 -29 -35 -37 -48 -7 -69 -19 -69 -40 0 -26 41 -21 188 23 64
19 138 41 164 48 48 13 200 14 231 0 13 -5 17 -2 17 12 0 10 20 38 44 62 40
39 44 41 60 26 9 -9 21 -25 26 -36 11 -20 36 -24 58 -11 20 13 4 39 -30 51
-39 14 -35 18 27 26 28 4 87 19 132 34 78 27 81 27 74 8 -5 -12 -2 -32 6 -49
28 -56 -5 -84 -68 -58 -30 13 -79 6 -79 -10 0 -17 44 -29 128 -33 52 -2 90
-10 106 -20 32 -21 36 -21 36 1 0 25 -34 54 -62 56 -20 1 -23 6 -22 43 1 81
79 133 187 124 23 -2 22 -28 -3 -36 -31 -10 -25 -18 38 -51 66 -36 86 -35 71
3 -15 40 13 162 38 164 42 3 73 13 156 48 102 43 160 54 136 25 -7 -8 -37 -27
-67 -42 -61 -30 -79 -50 -68 -77 5 -15 12 -12 48 20 39 36 43 37 92 32 28 -4
61 -9 74 -13 19 -5 22 -3 22 20 0 34 39 71 107 103 58 27 76 31 152 38 42 4
61 0 92 -17 37 -21 39 -21 58 -4 11 10 27 33 36 53 19 39 39 51 59 34 11 -9
15 -5 20 19 5 29 87 120 106 120 5 0 22 12 39 26 28 23 32 24 38 8 4 -10 0
-21 -10 -29 -9 -7 -14 -15 -10 -18 10 -11 59 24 79 57 31 52 94 114 123 121
15 3 39 2 53 -4 23 -9 25 -7 20 15 -5 27 9 32 28 9 18 -22 57 -19 65 6 5 14 0
26 -17 41 l-23 20 45 -8 c47 -8 177 -12 196 -6 6 2 9 14 6 27 -7 37 5 68 35
89 14 11 23 14 19 7 -4 -7 -5 -23 -2 -35 5 -22 10 -24 61 -17 25 3 65 53 65
81 0 15 5 30 12 32 24 8 60 -5 67 -26 l8 -21 7 22 c13 39 67 104 99 118 20 8
39 10 54 4 20 -7 25 -5 33 17 16 41 110 128 173 158 67 33 186 48 212 26 24
-20 59 -4 85 40 49 80 43 76 81 58 18 -9 38 -14 44 -11 16 10 -35 -47 -90
-100 -57 -55 -248 -197 -264 -197 -20 0 -11 35 17 70 34 42 43 63 32 80 -6 9
-14 7 -36 -9 -25 -18 -36 -20 -76 -12 -42 7 -51 6 -79 -15 -27 -20 -29 -24
-15 -30 10 -4 25 1 36 11 12 11 20 14 21 7 1 -7 2 -18 3 -24 4 -31 -16 -108
-41 -156 -15 -29 -56 -84 -91 -122 -66 -73 -64 -87 7 -50 46 23 114 98 138
151 9 22 20 39 25 39 14 0 17 1 60 14 24 7 77 33 118 57 88 52 126 69 160 71
46 2 58 -2 88 -27 l30 -25 21 36 c27 46 85 71 181 79 121 9 132 13 128 43 -4
38 -34 39 -112 2 -68 -33 -86 -32 -86 1 0 20 31 37 85 46 40 6 72 28 80 53 4
13 13 20 23 18 13 -2 17 -13 15 -40 -2 -47 17 -55 56 -22 17 14 84 91 149 172
138 170 204 238 279 288 69 46 101 43 53 -5 l-34 -33 41 6 c26 5 43 3 48 -3 9
-16 35 -13 35 3 0 7 7 19 15 26 12 10 15 10 15 -1 0 -31 42 31 65 96 14 38 37
82 51 96 l26 27 -25 14 -26 13 30 33 c35 39 39 39 39 6 0 -21 13 -8 77 73 42
54 135 170 208 258 237 288 301 383 340 502 9 29 21 55 26 59 15 9 21 -23 9
-46 -10 -19 -9 -21 11 -18 27 4 79 96 79 139 0 19 11 35 36 54 19 15 48 39 62
54 28 27 132 174 132 186 0 12 64 100 108 147 41 44 43 48 29 70 -23 36 -12
76 49 168 46 71 51 86 39 113 -5 12 -2 24 7 33 13 14 18 12 43 -17 22 -27 29
-30 36 -18 5 7 51 82 101 164 133 215 120 200 158 180 17 -9 38 -14 46 -11 22
8 17 34 -8 38 -28 4 -34 25 -10 32 21 7 34 33 52 104 13 52 41 82 75 82 21 0
25 5 25 30 0 24 -4 30 -21 30 -19 0 -18 2 8 24 58 48 103 58 103 21 0 -30 30
-13 47 27 9 21 17 25 34 21 15 -4 20 -3 15 5 -4 7 -16 12 -27 12 -25 0 -24 4
9 53 35 53 102 192 92 192 -1 0 21 49 80 180 10 22 30 57 44 78 23 33 24 38 8
33 -17 -6 -51 19 -45 31 1 3 33 20 70 38 60 30 69 32 80 19 10 -14 13 -12 26
13 8 15 33 82 57 148 23 66 46 129 51 140 55 121 283 922 325 1140 2 11 6 29
8 40 4 17 32 154 51 250 14 72 44 243 50 280 3 23 7 50 9 60 2 11 7 45 11 75
4 30 9 64 11 75 2 11 6 43 9 70 3 28 7 59 9 70 2 11 7 49 11 85 4 36 8 76 10
90 1 14 6 59 9 100 4 41 9 91 11 110 2 19 7 76 10 125 3 50 8 113 10 140 21
267 22 865 1 1210 -11 170 -19 283 -22 299 -2 11 -6 49 -9 85 -6 76 -13 141
-20 191 -3 19 -7 55 -10 80 -8 76 -15 131 -31 235 -8 55 -17 111 -19 125 -2
14 -10 63 -19 110 -8 47 -17 101 -21 120 -3 19 -8 42 -10 50 -2 8 -7 31 -10
50 -9 55 -54 269 -70 330 -8 30 -16 66 -19 80 -6 36 -73 289 -102 390 -14 47
-27 95 -30 107 -5 26 -22 73 -26 73 -2 0 -2 -35 0 -77 4 -92 -8 -89 -31 7 -15
62 -36 139 -71 260 -19 63 -20 69 -36 130 -20 81 -29 124 -35 175 -7 59 -107
327 -201 540 -10 22 -18 42 -19 45 -19 61 -281 599 -381 780 -235 429 -484
820 -759 1191 -38 52 -72 96 -75 99 -3 3 -18 23 -34 45 -25 34 -142 182 -197
250 -53 65 -242 285 -279 325 -8 9 -39 43 -69 75 -34 38 -63 61 -78 62 -57 5
-118 50 -273 202 -88 86 -174 165 -191 175 l-32 19 7 -29 c9 -35 64 -94 126
-136 61 -41 138 -116 157 -152 l16 -30 -27 18 c-34 21 -48 12 -64 -43 -17 -56
-32 -65 -78 -46 -81 33 -167 126 -178 190 -5 30 -5 30 30 -12 34 -41 66 -54
79 -34 3 6 -13 29 -35 52 -23 24 -62 78 -87 121 -26 44 -50 81 -54 83 -3 3
-12 -9 -19 -25 -7 -17 -18 -30 -26 -30 -14 0 -41 40 -27 40 18 0 -25 21 -64
31 -59 16 -74 36 -37 49 77 27 81 52 9 61 -27 4 -77 17 -110 30 -50 20 -65 32
-92 74 -75 117 -114 166 -228 280 -120 120 -224 215 -300 271 -51 37 -54 40
-113 97 l-50 48 25 26 26 25 -38 26 c-31 22 -36 31 -31 54 5 24 0 31 -37 56
-44 31 -69 30 -97 -2 -12 -16 -15 -14 -26 13 -14 33 -16 34 -116 31 -32 -1
-58 3 -58 8 0 5 -11 21 -25 36 l-24 26 28 0 c15 0 31 -3 35 -7 16 -16 118 -24
126 -9 5 9 -34 25 -107 45 -23 6 -55 23 -72 36 -26 22 -60 26 -61 6 -1 -3 -10
-17 -21 -30 -19 -24 -20 -24 -59 -6 -22 10 -40 23 -40 28 0 6 -2 8 -6 5 -9 -9
58 -128 79 -139 28 -16 4 -38 -36 -33 -35 5 -197 84 -197 95 0 4 -9 10 -20 14
-26 8 -109 84 -92 85 7 0 22 -5 33 -10 10 -6 19 -7 19 -2 0 15 -43 48 -105 81
-82 44 -93 56 -77 81 11 18 8 23 -34 49 -45 29 -64 34 -174 47 -104 12 -152
52 -205 171 -15 34 -36 70 -46 79 -18 16 -20 16 -32 0 -13 -17 -14 -17 -29 5
-71 103 -128 129 -173 79 -18 -19 -17 -20 4 -20 50 0 123 -61 116 -98 -2 -9
-4 -21 -4 -26 -1 -4 -17 6 -36 23 -48 41 -87 60 -240 116 -228 82 -329 128
-394 177 -31 23 -48 23 -56 -2 -6 -20 -39 -28 -49 -11 -10 16 -120 68 -200 95
-63 21 -254 72 -346 91 -44 10 -195 66 -225 85 l-34 21 -7 -25 c-7 -31 -15
-33 -31 -6 -20 31 -72 52 -142 56 l-65 4 32 -31 c18 -17 32 -34 32 -38 0 -3
-43 -4 -97 -1 -67 3 -98 9 -101 18 -3 11 -7 10 -21 -2 -9 -8 -29 -18 -45 -22
-25 -6 -28 -5 -23 10 4 10 7 20 7 22 0 2 8 4 18 5 9 0 1 6 -18 13 -19 8 -37
12 -40 11 -3 -2 -32 -6 -65 -9 -33 -4 -68 -9 -77 -12 -28 -8 -38 4 -28 31 5
14 8 25 7 25 -1 0 -16 -4 -33 -9 -40 -11 -74 10 -57 38 8 13 8 18 0 18 -7 0
-55 10 -107 21 -116 27 -420 92 -426 92 -13 0 0 -51 21 -79 18 -26 22 -38 14
-52 -7 -14 -15 -16 -32 -10 -13 5 -35 7 -50 4 -27 -5 -27 -6 -11 -24 18 -21
102 -49 142 -49 24 0 25 1 7 20 -18 20 -17 20 30 20 27 0 45 -3 42 -6 -10 -11
127 -81 177 -91 l29 -6 -18 31 c-11 17 -16 35 -12 39 12 11 75 -27 107 -64 36
-40 56 -42 65 -6 l7 28 13 -25 c9 -16 10 -29 4 -35 -5 -5 -58 -10 -117 -10
-124 0 -183 19 -204 65 l-12 27 -120 -4 c-122 -5 -166 -14 -166 -33 0 -6 12
-15 28 -21 22 -8 27 -16 29 -46 3 -50 31 -85 87 -105 54 -21 65 -4 16 24 -23
13 -29 23 -26 40 3 13 5 25 5 28 1 3 16 14 35 24 l35 18 65 -30 c62 -29 81
-52 56 -67 -15 -9 -2 -25 20 -25 10 0 28 15 40 35 27 43 40 44 63 4 17 -31 22
-32 77 -18 10 3 23 -12 37 -42 22 -46 23 -47 90 -59 151 -27 250 -56 449 -128
109 -40 136 -43 113 -15 -18 21 2 15 38 -13 24 -18 33 -33 33 -55 0 -33 -9
-35 -50 -14 -33 17 -44 8 -34 -29 4 -17 18 -30 45 -40 49 -20 73 -20 89 -1 15
18 41 12 83 -17 32 -23 51 -14 69 32 6 15 12 20 15 12 3 -7 -2 -24 -11 -37
-10 -15 -12 -25 -5 -25 11 0 172 -79 244 -119 43 -25 174 -112 214 -143 29
-22 41 -23 41 -3 0 25 36 23 97 -6 54 -26 105 -34 131 -20 17 9 23 7 36 -13 8
-13 27 -36 41 -52 14 -15 25 -39 25 -54 0 -15 7 -30 15 -33 19 -8 24 2 23 42
-1 40 16 60 40 45 9 -6 43 -46 76 -88 70 -93 116 -120 146 -87 27 32 47 25 75
-23 31 -53 60 -81 70 -67 3 6 3 17 -1 24 -3 6 19 -14 50 -45 l57 -58 99 0
c119 0 139 -12 171 -105 38 -108 63 -127 208 -160 70 -16 96 -34 136 -89 18
-25 28 -29 93 -35 l72 -7 73 -70 c39 -39 100 -96 135 -127 61 -55 146 -151
189 -213 l22 -30 -24 -70 c-14 -38 -35 -78 -48 -90 l-24 -21 35 -24 c52 -35
134 -123 160 -172 30 -57 29 -85 -5 -98 -42 -16 -83 0 -104 41 -10 18 -27 38
-36 43 -16 8 -88 54 -190 122 -44 29 -71 66 -93 128 -10 28 -26 57 -37 62 -45
25 -164 99 -358 225 -115 75 -267 171 -337 214 -71 43 -128 80 -128 82 0 2 24
-5 53 -15 28 -11 68 -22 87 -25 86 -15 184 -40 233 -61 34 -14 36 -14 51 10
23 34 47 31 131 -15 40 -22 82 -40 93 -40 48 0 27 22 -65 69 -60 30 -137 81
-198 131 -227 185 -259 209 -322 240 -36 17 -91 37 -120 43 -55 12 -89 41 -64
56 31 20 -52 74 -194 127 -27 10 -66 35 -87 56 -20 20 -40 33 -43 28 -10 -17
-95 -23 -141 -10 -25 7 -94 43 -152 80 -152 95 -149 94 -233 100 -63 5 -80 11
-104 32 -42 39 -98 64 -220 98 -117 33 -151 44 -202 66 -40 18 -53 18 -53 -1
0 -8 -9 -19 -21 -26 -23 -12 -127 -15 -174 -5 -17 3 -41 8 -54 11 -105 20
-241 100 -241 142 0 7 -3 13 -7 14 -5 0 -16 2 -25 4 -10 2 -26 -8 -37 -21 -25
-31 -43 -30 -63 4 -21 35 -87 112 -97 112 -3 0 -5 -19 -3 -41 l4 -42 -32 6
c-33 7 -110 -19 -124 -42 -5 -7 -15 -6 -33 6 -26 17 -26 17 -14 -6 18 -33 9
-35 -46 -8 -56 28 -196 79 -375 136 -128 41 -253 95 -265 114 -4 6 0 8 10 4 9
-3 19 -2 22 3 3 5 25 7 49 4 43 -6 64 8 48 33 -7 10 -91 22 -157 23 -24 0 -47
16 -110 78 -103 99 -190 173 -240 204 -31 20 -54 25 -105 26 -76 1 -130 21
-154 56 -26 41 -21 46 50 46 51 0 73 5 95 21 16 11 27 24 24 29 -9 15 -69 1
-86 -19 -24 -29 -43 -11 -35 33 6 32 5 36 -13 36 -16 0 -20 5 -17 23 3 12 5
25 5 30 1 12 60 -22 129 -74 35 -27 72 -49 83 -49 10 0 27 -9 36 -20 20 -23
54 -25 103 -9 30 11 34 10 51 -12 10 -13 24 -36 31 -51 12 -25 16 -27 58 -21
25 3 47 8 50 10 8 7 -24 22 -34 16 -5 -3 -6 -1 -2 5 8 13 127 52 159 52 11 0
28 -7 37 -15 12 -11 24 -13 39 -7 l22 8 -21 23 c-11 13 -20 30 -20 38 0 7 -6
13 -12 14 -7 0 -35 3 -62 6 -45 4 -49 3 -36 -11 7 -9 11 -17 9 -19 -2 -1 -16
-13 -31 -26 -23 -20 -30 -22 -43 -11 -8 7 -15 23 -15 36 0 33 -26 55 -52 45
-31 -11 -32 -25 -3 -41 37 -20 24 -23 -15 -3 -40 19 -130 26 -170 11 -22 -7
-34 -6 -52 6 -13 8 -42 18 -65 22 -49 7 -54 22 -23 61 30 39 25 50 -27 56 -27
3 -85 24 -138 51 -100 51 -105 52 -105 31z m60 -91 c0 -8 7 -17 15 -20 28 -11
15 -23 -27 -26 -46 -3 -55 -14 -35 -42 9 -12 26 -19 45 -18 49 1 48 -16 -1
-37 -47 -20 -76 -58 -34 -45 22 6 22 6 -2 -20 -40 -43 -89 -28 -104 32 -5 19
-1 22 29 22 26 0 32 3 28 15 -4 8 -3 23 1 33 16 35 14 43 -8 36 -43 -13 -77
-35 -77 -49 0 -8 -7 -15 -15 -15 -8 0 -15 5 -15 11 0 7 -12 23 -27 36 -22 21
-30 23 -50 14 -19 -9 -25 -8 -30 5 -3 8 2 23 11 32 18 18 93 22 187 10 51 -7
69 0 74 28 2 10 4 20 4 21 3 9 31 -12 31 -23z m-1151 -393 c-38 -24 -54 -28
-88 -24 -22 3 -41 9 -41 14 0 19 58 38 115 38 l60 1 -46 -29z m2801 -1 c0 16
40 2 68 -23 12 -11 18 -25 14 -29 -12 -12 -108 10 -122 27 -17 21 -3 37 21 25
13 -8 19 -7 19 0z m927 -39 c21 -6 41 -9 44 -8 7 3 39 -23 39 -32 0 -12 -104
1 -127 16 -25 17 -32 49 -9 40 8 -3 32 -11 53 -16z m-2827 -68 c0 -2 -17 -11
-38 -22 -44 -23 -119 -22 -153 2 -21 15 -20 16 32 19 63 4 159 4 159 1z m205
-18 c32 -7 99 -44 91 -52 -2 -2 -20 0 -39 5 -20 6 -80 9 -135 8 -82 -1 -96 1
-85 12 7 7 13 20 13 29 0 13 10 15 63 10 34 -3 75 -9 92 -12z m-548 -17 c-2
-7 -15 -11 -28 -10 -39 6 -41 17 -3 20 25 1 34 -2 31 -10z m698 -46 c-3 -3
-11 0 -18 7 -9 10 -8 11 6 5 10 -3 15 -9 12 -12z m-3556 -42 c9 0 25 -6 35
-13 17 -12 13 -16 -42 -36 -64 -24 -92 -25 -100 -2 -3 8 -1 11 4 8 15 -9 40
16 48 46 6 25 8 26 22 12 8 -8 23 -15 33 -15z m-304 -104 c59 -25 25 -60 -48
-50 -68 10 -76 27 -24 49 40 18 32 18 72 1z m6175 -98 c0 -11 -43 -10 -72 1
-13 5 -39 23 -58 40 l-35 30 83 -31 c45 -18 82 -35 82 -40z m-6100 7 c-99 -62
-197 -89 -208 -57 -5 17 54 44 153 68 119 29 119 29 55 -11z m6285 -76 c0 -23
-72 -16 -100 11 -13 13 -22 26 -20 30 8 13 120 -25 120 -41z m-6695 -18 c24
-1 23 -3 -22 -45 -48 -44 -86 -60 -110 -45 -9 6 -4 11 15 18 16 6 31 11 35 11
16 1 43 30 37 39 -4 7 -21 2 -49 -14 -48 -28 -66 -31 -66 -11 0 18 76 54 109
51 14 -1 37 -3 51 -4z m8480 -246 c13 -14 13 -17 0 -25 -11 -7 -20 -4 -32 11
-14 16 -24 19 -48 14 -33 -7 -41 8 -13 23 20 12 71 -1 93 -23z m-9243 9 c2 -7
-6 -14 -19 -17 -13 -4 -48 -22 -78 -42 -30 -19 -65 -35 -78 -35 -19 0 -11 9
41 49 36 27 71 51 78 54 21 9 52 3 56 -9z m9210 -70 c-3 -3 -12 -4 -19 -1 -8
3 -5 6 6 6 11 1 17 -2 13 -5z m-9249 -62 c-1 -4 -19 -29 -38 -54 -24 -33 -40
-45 -52 -42 -10 3 -27 0 -38 -6 -12 -6 -28 -10 -37 -8 -22 4 44 69 98 96 45
22 73 28 67 14z m-208 -11 c0 -5 -25 -19 -56 -30 -81 -31 -115 -50 -151 -84
-29 -27 -32 -28 -28 -9 2 11 8 30 14 41 13 24 102 68 161 80 62 12 60 12 60 2z
m9790 -163 c19 -6 49 -20 66 -32 40 -27 164 -127 164 -132 0 -2 -17 -11 -37
-19 l-37 -16 43 -21 c37 -18 81 -63 70 -71 -2 -2 -34 -1 -71 2 l-67 6 -52 69
c-29 38 -73 89 -97 113 -45 43 -128 90 -147 84 -24 -7 10 15 38 26 34 12 70 9
127 -9z m-9801 -28 c24 -12 24 -13 6 -26 -23 -17 -54 -18 -92 -3 l-28 11 23
18 c24 20 54 20 91 0z m8627 -15 c42 -17 64 -38 64 -60 0 -13 -6 -16 -26 -11
-15 4 -39 9 -54 13 -33 6 -70 37 -70 58 0 19 40 19 86 0z m-8783 -2 c-23 -9
-15 -42 12 -49 31 -8 31 -11 3 -41 -25 -27 -34 -28 -55 -8 -18 18 -45 12 -88
-19 -16 -12 -51 -34 -77 -49 -40 -23 -51 -26 -70 -16 -21 12 -21 12 8 28 16 9
59 36 94 61 73 50 160 99 175 99 6 0 4 -3 -2 -6z m10385 -82 c34 -31 42 -70
19 -89 -10 -8 -25 -5 -59 12 -35 17 -42 25 -31 32 12 8 12 13 -1 38 -11 22
-12 34 -5 43 13 15 33 6 77 -36z m205 14 c42 -17 55 -34 36 -46 -15 -10 -69
-4 -80 9 -4 4 -10 17 -14 30 -8 27 7 29 58 7z m-303 -62 c3 -3 -13 -1 -35 3
-37 6 -54 18 -55 37 0 6 76 -27 90 -40z m249 -61 c24 -46 45 -70 96 -107 176
-130 323 -273 283 -276 -44 -4 -111 28 -185 87 -23 19 -45 34 -49 34 -12 0
-74 50 -74 61 0 5 7 9 15 9 8 0 15 -6 15 -14 0 -16 27 -29 34 -17 15 23 -90
121 -157 147 -23 8 -43 90 -27 109 16 19 26 12 49 -33z m-10929 -101 c0 -11
-101 -113 -170 -172 -30 -25 -131 -101 -225 -169 -93 -68 -187 -138 -209 -156
l-38 -33 -33 32 c-18 18 -45 41 -59 52 -43 33 -38 56 29 113 61 54 93 69 120
58 26 -9 0 -44 -51 -69 -28 -13 -47 -30 -51 -45 -14 -55 14 -41 277 137 337
228 374 252 408 260 1 1 2 -3 2 -8z m11070 -222 c162 -122 270 -216 303 -264
l21 -30 -28 25 c-21 19 -30 22 -44 14 -14 -9 -28 -2 -77 41 -57 49 -204 160
-290 217 -49 34 -76 76 -80 129 l-3 40 51 -50 c29 -27 95 -82 147 -122z
m-2536 -330 c60 -36 61 -38 64 -84 3 -41 1 -47 -13 -41 -9 3 -22 6 -28 6 -7 0
-18 4 -26 9 -12 8 -12 12 -2 25 19 23 7 44 -21 39 -14 -3 -37 5 -59 20 -20 13
-49 29 -65 35 l-29 10 25 10 c43 18 91 9 154 -29z m3037 -104 c62 -42 171
-146 219 -207 56 -73 -83 9 -204 120 -79 71 -128 102 -164 102 -26 0 -23 31 4
40 29 11 73 -6 145 -55z m-12571 40 c7 -8 8 -15 3 -15 -5 0 -29 -18 -54 -40
-24 -22 -54 -40 -66 -40 -19 0 -15 8 32 55 58 59 66 63 85 40z m-103 -183 c8
-5 -2 -18 -28 -40 -21 -18 -39 -28 -39 -22 0 6 -11 16 -25 22 -14 6 -25 14
-25 18 0 21 91 39 117 22z m10353 -152 c30 -25 33 -30 17 -36 -10 -3 -25 0
-35 8 -9 7 -29 20 -44 27 -20 10 -24 16 -15 26 15 16 35 10 77 -25z m2756 18
c16 -13 43 -35 59 -51 17 -15 40 -30 53 -33 18 -5 22 -13 23 -48 0 -22 2 -48
4 -57 1 -9 0 -22 -4 -28 -14 -22 -62 30 -98 106 -20 40 -51 87 -70 103 -27 24
-30 30 -15 30 11 0 32 -10 48 -22z m-103 -17 c13 -13 0 -31 -18 -25 -9 4 -17
-5 -22 -27 -10 -37 -33 -51 -33 -20 0 12 -5 30 -12 40 -20 32 -4 52 38 46 21
-2 42 -9 47 -14z m-2516 -110 l13 -32 -27 18 c-16 9 -29 18 -31 19 -1 0 0 9 4
18 9 24 26 15 41 -23z m-11089 1 c-8 -9 -20 -31 -27 -49 -20 -49 -34 -57 -70
-38 -34 17 -34 17 -25 39 4 11 11 13 30 6 20 -8 24 -6 24 9 0 21 33 46 62 48
18 2 19 0 6 -15z m11347 -135 c39 -28 75 -56 81 -61 6 -6 33 -29 60 -51 50
-41 68 -59 164 -161 59 -63 207 -180 247 -195 14 -5 23 -12 21 -17 -3 -4 -11
-21 -18 -39 l-14 -31 -50 25 c-28 14 -74 48 -102 77 -86 86 -286 272 -365 337
-41 34 -85 71 -99 83 -14 11 -46 37 -72 56 -43 32 -52 53 -39 88 2 7 121 -64
186 -111z m2060 -4 c87 -127 152 -209 228 -291 43 -46 49 -50 54 -32 10 39 24
21 38 -51 5 -23 -31 -59 -58 -60 -52 -3 -73 4 -96 29 -12 15 -37 43 -55 62
-197 218 -253 300 -261 377 -4 33 31 83 57 83 7 0 49 -52 93 -117z m-940 12
c30 -13 30 -13 4 -14 -14 -1 -34 6 -45 14 -25 19 -1 19 41 0z m-50 -46 c50
-51 93 -75 108 -60 8 8 6 19 -6 41 l-18 30 25 -10 c16 -6 26 -5 28 1 5 16 98
-51 174 -126 38 -38 114 -126 169 -195 54 -69 103 -130 109 -135 6 -6 28 -29
50 -52 37 -40 38 -41 17 -52 -31 -17 -55 0 -101 73 -40 64 -76 96 -105 96 -29
0 -14 -28 40 -75 58 -49 66 -70 38 -104 l-18 -21 -25 35 c-18 24 -33 35 -52
35 -23 0 -27 5 -33 40 -7 42 -29 69 -119 147 -40 35 -46 45 -36 57 8 10 25 14
50 11 52 -5 57 7 16 39 -45 34 -61 33 -76 -4 -7 -17 -26 -42 -43 -56 l-30 -26
-19 38 c-10 21 -35 58 -56 83 -81 98 -105 133 -123 181 -10 28 -15 50 -11 50
4 0 26 -18 47 -41z m-12590 12 c0 -6 7 -16 15 -21 23 -14 -25 -50 -67 -50 -37
0 -37 2 6 57 25 32 46 38 46 14z m14368 -152 l32 -27 -28 -28 c-16 -16 -35
-41 -43 -56 l-15 -28 -92 96 c-109 115 -117 125 -122 163 l-3 29 119 -61 c66
-34 134 -73 152 -88z m207 -68 c-45 -30 -60 -51 -60 -85 0 -31 3 -35 28 -34
39 1 69 -17 88 -53 18 -35 5 -62 -20 -44 -88 65 -97 56 -24 -22 30 -32 81 -89
114 -128 32 -38 61 -72 64 -75 3 -3 48 -57 101 -120 53 -63 127 -148 165 -189
51 -54 72 -86 81 -118 11 -45 90 -191 123 -228 34 -39 127 -183 153 -236 27
-55 41 -137 27 -159 -20 -32 -138 23 -162 76 -10 20 -7 27 15 48 28 26 33 50
18 75 -7 11 -16 6 -41 -23 -18 -20 -36 -36 -40 -36 -5 0 -16 26 -25 58 -20 69
-53 127 -94 166 -17 16 -28 33 -25 38 12 19 35 5 60 -37 27 -48 61 -63 48 -23
-14 46 -61 108 -112 148 -116 92 -135 127 -69 122 27 -1 37 2 35 10 -3 7 -10
14 -16 14 -7 1 -17 2 -23 3 -5 0 -29 21 -51 46 -25 27 -50 45 -63 45 -22 0
-34 16 -159 218 -17 26 -54 84 -83 130 l-53 83 -27 -20 c-34 -28 -53 -27 -53
3 0 14 -5 28 -10 31 -6 3 -17 20 -25 36 -14 26 -14 30 0 35 9 4 29 -7 50 -25
47 -40 80 -43 43 -3 -95 103 -144 208 -118 256 16 30 28 34 104 33 58 0 59 -1
36 -16z m-625 -225 c15 -22 15 -27 -1 -58 l-17 -33 -20 42 c-17 35 -18 45 -7
57 17 22 27 20 45 -8z m855 -33 c35 -56 41 -86 12 -60 -10 9 -36 23 -57 30
-21 7 -45 23 -53 35 -13 20 -12 22 20 31 18 5 36 10 40 10 5 1 21 -20 38 -46z
m-2779 -60 c13 -16 12 -17 -3 -4 -10 7 -18 15 -18 17 0 8 8 3 21 -13z m130
-25 c108 -43 142 -85 100 -127 -18 -18 -19 -18 -30 5 -5 13 -32 35 -60 48 -59
30 -81 51 -81 77 0 24 5 24 71 -3z m-86 -8 c3 -5 2 -10 -4 -10 -5 0 -13 5 -16
10 -3 6 -2 10 4 10 5 0 13 -4 16 -10z m1202 -98 c10 2 26 19 36 39 l17 37 36
-18 c47 -25 64 -40 64 -57 0 -11 -4 -13 -12 -5 -26 20 -75 24 -92 7 -9 -9 -14
-21 -10 -26 3 -5 46 -49 96 -97 95 -91 202 -200 263 -267 64 -70 185 -268 185
-303 0 -7 -62 -35 -65 -29 -10 23 -135 164 -205 232 -227 220 -279 274 -319
334 -45 66 -84 152 -96 211 l-6 35 45 -48 c28 -30 52 -47 63 -45z m1235 -497
c-2 -23 -36 -14 -63 16 -45 50 -36 64 17 27 26 -18 46 -37 46 -43z m398 -244
c46 -68 36 -78 -25 -26 -53 46 -62 64 -48 100 7 20 16 11 73 -74z m-10455
-582 c-6 -30 -12 -34 -29 -20 -8 6 -18 11 -22 10 -33 -6 -32 5 1 16 55 18 54
18 50 -6z m-40 -206 c-5 -27 -8 -56 -7 -66 0 -9 -2 -16 -6 -14 -4 2 -33 16
-65 31 -31 15 -55 31 -53 35 8 12 106 58 130 60 4 1 5 -20 1 -46z m2884 -4494
c-22 -14 -33 -10 -19 6 7 8 17 12 22 9 6 -4 5 -10 -3 -15z m36 -29 c-3 -4 9
-7 26 -8 41 -1 51 -12 12 -12 -43 0 -94 11 -88 19 2 4 15 7 29 7 13 0 23 -3
21 -6z m-131 -140 c-10 -4 -28 -4 -39 -1 -17 4 -15 6 10 11 35 7 57 0 29 -10z
m400 -46 c19 -19 20 -28 4 -54 -10 -15 -10 -22 0 -32 11 -11 12 -10 7 3 -3 9
-1 16 7 16 7 0 14 -11 14 -24 1 -16 -3 -23 -17 -23 -32 0 -21 -17 21 -34 22
-9 40 -18 40 -22 0 -3 -4 -2 -10 1 -5 3 -10 1 -10 -4 0 -6 6 -11 13 -11 9 0 8
-3 -2 -9 -11 -7 -9 -10 7 -15 11 -4 25 -21 31 -38 10 -28 9 -30 -9 -25 -24 6
-27 -8 -3 -17 15 -6 15 -8 3 -16 -21 -14 -30 -12 -30 4 0 8 -4 18 -10 21 -10
6 -5 -39 11 -89 7 -24 7 -27 -6 -16 -8 7 -13 16 -10 20 3 5 -3 11 -12 14 -10
3 -26 19 -35 36 -9 16 -22 30 -28 30 -6 0 -9 -4 -5 -10 3 -5 0 -18 -7 -29 -10
-17 -9 -23 14 -40 14 -11 28 -29 31 -40 4 -16 -2 -20 -32 -24 -58 -7 -64 -1
-56 52 9 60 11 87 20 196 3 50 8 109 10 132 5 64 19 78 49 47z m183 -190 c-3
-3 -12 -4 -19 -1 -8 3 -5 6 6 6 11 1 17 -2 13 -5z m-21 -31 c-7 -7 -26 7 -26
19 0 6 6 6 15 -2 9 -7 13 -15 11 -17z m23 -10 c-3 -21 2 -33 13 -27 7 4 8 3 4
-4 -11 -18 -30 -14 -43 7 -10 16 -9 20 5 24 9 3 18 5 20 6 1 0 1 -2 1 -6z
m-306 -60 c-3 -18 -9 -33 -13 -33 -5 0 -4 15 1 32 5 18 9 35 9 37 0 2 2 2 4 0
2 -2 1 -19 -1 -36z m-16 -85 c-3 -8 -6 -5 -6 6 -1 11 2 17 5 13 3 -3 4 -12 1
-19z m289 -36 c-4 -3 -14 2 -24 12 -16 18 -16 18 6 6 13 -6 21 -14 18 -18z
m-299 -4 c-3 -8 -6 -5 -6 6 -1 11 2 17 5 13 3 -3 4 -12 1 -19z m113 -71 c0
-11 -43 3 -52 16 -4 6 -4 15 -2 19 6 9 53 -22 54 -35z m-133 -29 c-3 -7 -5 -2
-5 12 0 14 2 19 5 13 2 -7 2 -19 0 -25z m87 -3 c-3 -7 4 -18 15 -25 22 -11 28
-30 10 -30 -5 0 -7 5 -3 12 4 7 3 8 -4 4 -7 -4 -17 -16 -23 -28 -6 -11 -7 -18
-2 -15 6 4 19 -6 30 -21 20 -28 20 -28 1 -29 -29 -3 -33 -10 -18 -30 8 -10 3
-8 -10 4 -19 18 -23 31 -21 65 3 46 8 90 11 98 1 3 2 9 1 13 -1 5 3 6 8 2 6
-3 8 -12 5 -20z m57 -107 c5 -10 7 -18 5 -18 -9 0 -56 54 -56 64 0 12 39 -23
51 -46z m48 -11 c12 -15 5 -27 -16 -27 -7 0 -13 9 -13 20 0 23 13 26 29 7z
m-19 -55 c-7 -3 -19 3 -28 13 -16 15 -15 16 12 4 15 -7 23 -15 16 -17z m-111
-202 c24 -44 16 -53 -16 -17 -19 21 -28 57 -13 57 3 0 16 -18 29 -40z m70 -45
c0 -5 -6 -1 -14 9 -8 11 -15 24 -15 30 0 5 7 1 15 -10 8 -10 14 -23 14 -29z
m-115 -91 c3 -8 2 -12 -4 -9 -6 3 -10 10 -10 16 0 14 7 11 14 -7z m-17 -56
c-3 -8 -6 -5 -6 6 -1 11 2 17 5 13 3 -3 4 -12 1 -19z m-9521 -955 c62 -39 101
-143 55 -143 -28 0 -51 -27 -51 -61 l0 -30 28 20 c15 11 37 22 50 26 21 6 22
4 23 -72 1 -94 3 -107 28 -166 14 -32 17 -48 9 -53 -15 -10 -38 24 -38 57 0
24 -22 59 -36 59 -9 0 7 -104 21 -137 8 -18 28 -53 45 -78 66 -95 73 -156 16
-126 -13 8 -30 10 -36 6 -9 -6 -5 -12 14 -22 16 -9 36 -34 50 -68 15 -32 32
-56 45 -60 12 -3 24 -18 27 -33 4 -15 18 -72 31 -127 14 -55 27 -109 29 -120
7 -39 36 -160 46 -192 8 -29 12 -31 34 -23 45 17 54 13 55 -27 0 -21 4 -47 8
-58 10 -24 3 -45 -13 -45 -6 0 -23 21 -38 45 -43 71 -49 53 -16 -42 19 -56 31
-109 32 -146 1 -51 -2 -61 -24 -79 -28 -23 -66 -20 -127 9 l-38 17 43 9 c42 8
67 32 74 71 2 12 -4 20 -16 22 -50 8 -93 91 -63 121 14 14 18 11 41 -26 33
-51 52 -54 30 -3 -20 44 -142 350 -204 507 -24 61 -57 139 -74 175 -24 52 -30
80 -32 140 -1 41 -4 86 -7 100 -3 14 -8 34 -11 45 -2 11 -23 85 -45 165 -51
177 -60 263 -36 325 9 25 19 45 22 45 3 0 25 -12 49 -27z m350 -395 c45 -77
48 -87 36 -113 -21 -46 -29 -35 -62 94 -14 55 -1 65 26 19z m327 -423 c19 -40
22 -71 7 -80 -5 -3 -10 -1 -10 6 0 7 -11 27 -25 45 -29 39 -32 64 -7 64 11 0
25 -14 35 -35z m727 -77 c29 -81 125 -280 188 -390 73 -128 120 -279 124 -398
2 -41 -4 -90 -10 -90 -4 0 -19 27 -34 59 -22 51 -29 59 -47 54 -12 -3 -27 -13
-34 -22 -24 -33 -37 -33 -65 0 -36 43 -44 57 -37 68 3 6 16 -1 30 -15 44 -44
107 -21 76 28 -28 45 -183 364 -210 431 -42 106 -66 200 -77 301 -6 57 -6 59
15 53 11 -3 24 -1 27 4 12 20 21 5 54 -83z m11444 -295 c37 -54 20 -71 -29
-29 -20 17 -25 29 -20 45 9 30 21 26 49 -16z m-31 -49 c20 -17 39 -24 54 -21
18 3 31 -6 62 -47 21 -28 66 -80 100 -115 l62 -65 -25 -20 c-18 -15 -26 -35
-31 -71 -19 -152 -155 -279 -262 -243 -19 6 -25 2 -37 -20 -16 -30 -75 -92
-88 -92 -4 0 -8 11 -8 25 0 36 -28 75 -54 75 -19 -1 -19 -2 -3 -11 24 -14 21
-29 -6 -29 -27 0 -110 -58 -102 -71 7 -11 64 12 106 42 39 28 53 14 15 -16
-18 -14 -24 -25 -17 -29 20 -13 2 -23 -34 -20 -24 1 -35 -2 -35 -11 0 -26 -58
-71 -127 -98 -92 -36 -126 -72 -132 -140 -1 -5 -13 1 -27 12 -33 26 -44 27
-37 2 6 -25 -9 -33 -66 -35 -37 -1 -46 -5 -49 -21 -9 -60 -10 -61 -47 -57 -29
3 -47 -3 -97 -37 -41 -28 -72 -41 -95 -41 -38 0 -39 2 -17 35 24 37 11 61 -34
61 -27 0 -53 11 -88 34 -51 35 -53 37 -94 71 -28 23 -64 43 -96 53 -18 5 -27
-2 -53 -40 -34 -52 -43 -86 -15 -63 8 7 24 30 35 51 23 45 50 52 43 11 -3 -16
-20 -42 -39 -58 -43 -38 -45 -65 -5 -88 40 -24 51 -15 43 36 l-6 42 24 -18
c13 -9 37 -24 52 -32 l28 -16 -7 35 c-8 47 2 46 21 -1 9 -21 21 -40 27 -44 6
-4 2 -10 -11 -14 -17 -5 -19 -10 -10 -26 8 -17 3 -27 -32 -64 -25 -26 -52 -45
-64 -45 -18 0 -21 -5 -17 -29 8 -55 -66 -83 -255 -96 -100 -7 -177 -34 -304
-105 -142 -79 -238 -108 -275 -82 -5 4 -24 41 -41 84 l-31 76 47 33 c25 19 63
51 85 72 34 33 40 36 55 24 23 -20 39 -11 46 26 6 29 10 32 40 31 44 -2 54
-10 48 -34 -3 -11 0 -20 6 -20 6 0 11 9 11 21 0 11 4 18 9 14 5 -3 7 -22 4
-43 -7 -47 10 -34 31 23 13 36 15 37 15 13 1 -27 21 -51 21 -25 0 21 26 40 79
57 30 10 45 21 43 30 -1 9 5 6 17 -8 11 -12 22 -40 26 -61 8 -50 35 -77 35
-37 0 15 -7 41 -16 57 -14 28 -14 31 3 35 10 3 29 23 42 44 27 44 90 113 117
129 17 9 17 12 4 21 -19 13 -66 13 -90 0 -10 -5 -37 -32 -60 -60 l-42 -50 21
-26 c31 -40 26 -47 -19 -24 -48 24 -76 53 -89 92 -9 27 -9 29 9 23 16 -5 20
-2 20 19 0 23 3 24 42 21 49 -3 72 10 168 97 66 61 103 75 163 64 30 -6 33 -9
29 -35 -4 -26 -2 -28 22 -24 20 4 36 -5 78 -45 51 -48 108 -81 108 -63 0 4 -9
16 -20 26 -27 24 -26 30 14 71 l35 36 16 -29 16 -28 -5 34 c-4 18 -6 39 -6 45
-1 29 -16 37 -45 22 -20 -11 -34 -12 -47 -5 -21 11 -19 25 16 99 16 35 22 40
24 25 5 -26 39 -73 77 -108 l30 -27 20 44 c15 33 25 43 41 41 21 -1 21 -1 -3
33 -37 56 -26 61 22 10 47 -49 56 -50 50 -3 -3 32 3 55 15 55 5 0 24 -22 44
-50 20 -27 41 -50 47 -50 14 0 -29 59 -84 117 -35 36 -38 43 -23 49 10 4 35 2
55 -5 52 -15 57 -14 38 7 -10 10 -14 22 -10 25 12 13 21 7 27 -18 10 -40 23
-29 41 33 22 75 41 95 81 89 31 -5 31 -5 21 23 -8 22 -8 32 2 44 18 22 23 20
46 -13 10 -16 29 -31 41 -34 19 -3 25 3 39 40 21 56 135 170 202 204 26 13 50
25 52 27 3 1 -6 13 -19 27 -13 14 -21 27 -19 30 3 2 32 7 64 10 107 11 144 31
128 70 -5 14 -8 14 -24 -1 -20 -18 -53 -12 -47 9 4 11 63 45 82 47 4 0 22 -12
39 -26z m6007 -19 c0 -4 -7 -20 -16 -37 -9 -17 -18 -42 -20 -56 -7 -36 -23
-62 -38 -62 -10 0 -8 16 10 66 12 36 28 72 34 80 12 14 30 19 30 9z m-18650
-77 c56 -32 54 -77 -3 -70 -39 4 -44 14 -53 97 l-5 50 16 -30 c8 -16 29 -38
45 -47z m798 -304 c-2 -29 -8 -40 -22 -42 -18 -4 -36 13 -36 34 0 6 10 23 21
38 27 34 41 22 37 -30z m-428 -74 c0 -10 23 -63 50 -117 38 -72 51 -109 51
-141 1 -46 -7 -64 -20 -44 -4 6 -41 47 -82 89 -42 43 -90 98 -108 122 l-31 45
31 13 c17 7 44 24 61 38 32 27 48 25 48 -5z m502 -19 c30 -10 39 -20 52 -54 8
-23 41 -107 74 -187 66 -162 82 -218 82 -285 0 -38 -5 -52 -29 -76 -16 -16
-36 -29 -44 -29 -19 0 -39 52 -82 215 -15 54 -45 142 -67 195 -22 52 -44 108
-50 123 -10 27 -11 27 -29 11 -18 -16 -19 -16 -19 24 0 28 6 47 20 60 22 21
38 21 92 3z m621 -45 c8 -8 22 -45 31 -82 21 -84 40 -121 67 -129 11 -4 23 -5
25 -2 3 2 -11 34 -31 71 -41 77 -43 99 -13 120 26 18 31 14 47 -35 7 -22 20
-39 32 -42 16 -4 19 -13 18 -55 -2 -35 5 -61 22 -93 13 -24 26 -46 29 -49 3
-3 15 -24 27 -47 22 -40 22 -42 5 -48 -11 -3 -35 1 -55 10 -40 16 -59 5 -33
-20 8 -8 18 -24 21 -35 9 -28 26 -25 70 10 21 17 42 31 46 31 39 6 43 3 45
-31 2 -19 19 -78 39 -130 25 -64 39 -118 42 -165 3 -38 3 -67 -1 -64 -3 3 -23
36 -43 74 -24 42 -47 71 -62 77 -23 8 -23 7 -17 -32 l6 -41 -27 18 c-15 10
-24 12 -20 6 5 -7 5 -13 0 -13 -16 1 -94 120 -132 202 -22 46 -65 155 -96 243
-32 88 -68 181 -81 207 -13 26 -24 50 -24 53 0 11 49 4 63 -9z m16757 -39 c0
-2 -7 -24 -16 -49 -15 -46 -44 -73 -44 -42 0 10 -6 14 -14 11 -20 -8 -27 3
-15 25 13 25 89 72 89 55z m-6554 -101 c3 -22 -12 -56 -25 -56 -11 0 -23 59
-15 72 10 15 37 4 40 -16z m-9243 -64 c-2 -11 14 -38 46 -75 46 -53 62 -92 45
-110 -9 -9 -123 92 -139 123 -13 27 -3 76 14 65 5 -3 12 -1 16 5 10 17 23 11
18 -8z m15720 -29 c4 -2 7 -12 7 -22 0 -14 -6 -17 -26 -13 -23 4 -25 2 -19
-16 4 -16 -1 -29 -19 -47 -26 -26 -57 -36 -39 -12 5 6 11 30 12 52 4 59 16 76
49 69 15 -4 30 -9 35 -11z m-6724 -85 c13 -37 2 -36 -30 5 -35 44 -50 73 -41
82 9 9 59 -51 71 -87z m39 40 c20 -45 20 -48 3 -48 -13 0 -20 12 -28 45 -6 24
-8 47 -5 50 7 7 6 8 30 -47z m-10934 -97 c8 -15 17 -55 21 -89 8 -83 20 -121
47 -149 l22 -24 -24 9 c-14 5 -39 31 -56 58 -18 27 -45 63 -60 80 -26 27 -28
33 -17 55 7 13 13 32 13 42 0 26 19 59 31 52 5 -4 16 -19 23 -34z m2093 -1 c2
-29 -2 -40 -13 -40 -7 0 -14 -4 -14 -10 0 -19 -15 -10 -32 21 -30 51 -22 67
32 68 23 1 26 -3 27 -39z m-40 -77 c24 -21 62 -55 83 -75 22 -21 45 -38 53
-38 7 0 36 11 63 25 76 39 85 7 9 -34 -22 -11 -35 -21 -29 -21 6 0 21 -23 35
-52 27 -58 44 -78 65 -78 20 0 17 23 -7 54 -18 23 -20 32 -10 52 7 16 19 24
35 24 13 0 30 2 38 5 10 4 13 -4 10 -36 -5 -51 10 -64 51 -43 26 14 27 17 12
28 -13 9 -16 20 -10 44 3 18 10 34 14 36 12 8 86 -68 128 -130 22 -33 58 -93
80 -135 33 -62 37 -76 23 -72 -25 7 -46 -32 -29 -53 9 -11 23 -13 51 -9 34 6
38 4 38 -14 0 -25 -5 -28 -59 -32 -41 -4 -46 -1 -63 28 -17 28 -22 48 -27 101
0 6 -14 12 -30 12 -19 0 -39 11 -60 32 -17 17 -31 35 -31 39 0 12 -51 69 -61
69 -24 0 134 -211 239 -318 47 -49 65 -82 44 -82 -12 0 -30 -42 -25 -57 3 -7
13 -13 22 -13 11 0 28 -19 45 -50 15 -27 33 -50 39 -50 16 -1 -34 -39 -50 -40
-16 0 -16 -5 1 -38 13 -27 13 -44 0 -91 -4 -14 -8 -29 -8 -33 -1 -5 -5 -8 -11
-9 -5 -1 -18 -5 -27 -10 -13 -7 -24 0 -49 32 l-33 42 24 19 c20 16 22 22 12
39 -7 10 -12 27 -12 37 0 31 -12 33 -47 6 -18 -14 -38 -22 -43 -19 -6 4 -9 37
-8 75 3 72 -7 97 -26 66 -37 -61 -37 -61 -94 8 -51 62 -132 173 -132 181 0 2
-13 23 -28 47 -35 52 -55 91 -120 228 -47 101 -114 208 -164 260 l-23 25 25
26 c14 15 27 27 29 28 2 0 24 -16 48 -36z m-1839 -143 c1 -45 -1 -50 -21 -50
-13 0 -33 7 -45 16 -28 19 -30 48 -3 39 13 -4 23 2 35 20 25 37 34 31 34 -25z
m11557 -30 c10 -16 -25 -70 -45 -70 -3 0 -11 4 -19 9 -11 7 -10 14 8 40 22 31
45 40 56 21z m-791 -49 c14 -26 14 -30 -1 -35 -10 -4 -25 1 -37 14 -21 21 -21
21 -2 36 25 18 23 19 40 -15z m-10647 -196 c72 -127 97 -161 134 -181 25 -12
28 -18 18 -30 -28 -34 -84 3 -154 100 -47 66 -118 208 -131 261 l-7 30 42 -40
c24 -22 68 -85 98 -140z m16797 158 l29 -6 -33 -29 c-18 -15 -38 -28 -44 -29
-6 0 -19 -2 -28 -4 -22 -4 -22 5 -1 50 12 25 22 34 32 30 9 -4 29 -9 45 -12z
m-15810 -60 c8 -21 -7 -15 -44 17 l-35 30 37 -17 c20 -9 39 -22 42 -30z
m10152 -102 c-25 -17 -122 -120 -143 -154 -4 -6 -40 -41 -78 -77 -82 -76 -146
-110 -212 -115 -26 -1 -49 -7 -51 -13 -7 -21 18 -50 47 -57 16 -3 37 -15 46
-25 17 -19 17 -20 -1 -27 -24 -9 -115 -9 -189 2 -181 24 -273 2 -316 -78 -8
-15 -5 -14 28 4 56 32 150 32 193 1 28 -21 33 -22 48 -9 9 9 45 22 79 30 l63
14 -6 -26 c-10 -41 -36 -61 -90 -68 -58 -6 -99 -26 -114 -52 -13 -26 -13 -34
5 -57 15 -18 15 -18 13 11 -3 27 0 30 27 33 25 2 66 10 190 37 100 21 109 19
94 -25 -14 -38 -79 -70 -145 -70 l-49 0 30 -24 c26 -21 28 -25 13 -31 -11 -4
-35 2 -60 14 -43 21 -61 20 -52 -3 9 -23 79 -49 123 -44 l40 3 -21 -22 c-19
-20 -27 -21 -103 -17 -109 6 -155 -10 -155 -56 0 -33 -37 -79 -65 -81 -8 -1
-19 -3 -25 -4 -5 -1 -15 -3 -20 -4 -14 -1 17 -61 36 -68 21 -8 49 21 69 72 14
39 21 45 46 45 15 0 53 11 83 25 87 40 105 45 111 34 12 -19 61 23 90 79 31
57 70 87 125 94 22 3 25 -1 25 -27 0 -25 -8 -35 -49 -62 -85 -56 -88 -60 -73
-121 17 -65 7 -77 -73 -87 -71 -8 -91 -14 -112 -33 -41 -36 -16 -40 99 -16 73
15 213 70 213 83 0 4 -5 12 -12 19 -9 9 -17 7 -36 -11 -23 -22 -24 -22 -38 -3
-21 30 -17 55 11 68 24 11 30 24 26 62 -3 37 40 -7 57 -59 13 -37 22 -50 36
-50 11 0 21 6 24 14 3 10 0 12 -12 8 -11 -5 -16 -1 -16 13 0 29 13 31 54 10
33 -16 42 -17 79 -6 23 7 64 27 92 44 27 17 51 29 53 28 1 -2 -5 -22 -14 -44
-15 -39 -20 -43 -119 -81 -56 -23 -125 -42 -152 -45 -36 -3 -56 -11 -80 -33
-56 -53 -182 -74 -282 -48 -65 17 -54 18 -271 -39 -133 -35 -380 -76 -380 -63
0 2 -5 29 -10 58 -6 30 -13 68 -15 84 -17 102 -114 503 -135 559 -9 25 -7 27
46 51 31 14 59 25 62 25 2 0 27 14 54 31 28 16 53 28 56 25 3 -3 0 -6 -6 -6
-7 0 -12 -5 -12 -11 0 -16 56 -1 122 33 73 38 122 45 172 24 47 -20 45 -20 39
4 -3 11 -10 20 -16 20 -18 0 3 14 26 17 234 29 347 68 415 141 26 28 35 33 42
22 5 -8 7 -17 4 -21 -2 -4 0 -10 6 -14 5 -3 31 12 58 34 67 57 254 127 347
130 17 1 15 -2 -9 -18z m5604 -39 c-30 -63 -53 -88 -70 -77 -19 12 59 135 86
135 8 0 3 -20 -16 -58z m-310 -302 c55 -14 90 -36 90 -55 0 -7 -16 -41 -36
-75 -38 -62 -79 -103 -98 -97 -24 8 -15 37 23 81 44 51 45 54 31 76 -14 22
-64 -34 -268 -309 -195 -260 -259 -334 -250 -289 9 44 123 244 204 358 53 74
128 183 168 243 56 84 73 104 81 93 6 -8 31 -19 55 -26z m-16257 -31 c7 -1 19
-1 28 0 10 1 19 -8 23 -22 5 -23 145 -236 223 -340 39 -52 51 -106 34 -151
l-12 -29 -27 54 c-15 30 -72 121 -126 203 -92 138 -187 307 -186 331 1 5 8 -2
16 -17 8 -16 20 -29 27 -29z m-11 -197 c35 -23 69 -61 120 -133 24 -33 53 -74
66 -91 26 -36 25 -49 -5 -62 -20 -9 -19 -11 13 -56 18 -25 42 -54 53 -64 17
-16 20 -26 15 -60 -13 -80 -37 -87 -54 -13 -14 64 -26 90 -66 147 -28 40 -81
126 -135 215 -20 35 -51 135 -41 135 4 0 19 -8 34 -18z m2833 -298 c6 -6 35
-30 65 -55 30 -24 57 -46 60 -50 28 -32 149 -109 267 -170 69 -35 72 -37 54
-53 -10 -9 -25 -14 -35 -10 -19 7 -20 0 -6 -27 14 -25 82 -59 120 -59 26 0 30
-3 30 -28 0 -28 52 -122 68 -122 18 0 109 -102 121 -136 11 -31 11 -38 -3 -52
-26 -26 -104 -21 -150 10 l-39 27 -35 -27 c-27 -21 -48 -27 -95 -29 -33 -1
-62 -4 -64 -6 -2 -2 4 -26 12 -53 8 -27 31 -105 51 -174 20 -69 60 -210 90
-313 30 -103 54 -192 54 -197 0 -25 -77 29 -161 112 -109 108 -171 154 -364
268 -276 164 -379 244 -470 365 -31 42 -55 78 -54 79 2 2 39 27 83 56 109 73
142 109 164 182 26 82 50 87 82 18 28 -59 56 -80 106 -80 l37 0 -46 30 c-38
26 -54 48 -95 128 -47 92 -49 98 -34 120 15 23 19 97 8 149 -6 28 25 36 95 23
29 -6 54 -8 57 -5 3 2 -3 15 -12 27 -45 62 -66 99 -70 123 -5 25 -3 24 47 -17
29 -24 57 -48 62 -54z m-2667 -251 c14 -19 15 -33 4 -50 -11 -17 -82 42 -82
67 0 16 4 17 33 9 17 -5 38 -17 45 -26z m378 17 c6 -6 30 -16 54 -23 l43 -12
37 -105 c39 -113 68 -165 123 -223 36 -39 34 -41 -23 -38 -50 3 -94 36 -195
147 -92 101 -187 195 -193 189 -2 -1 -4 -22 -5 -46 -1 -23 -7 -44 -14 -46 -15
-5 -73 74 -73 99 0 27 18 58 33 58 7 0 31 -19 52 -41 22 -23 58 -50 80 -60 39
-18 105 -25 118 -13 4 4 -9 24 -28 46 -19 21 -35 47 -35 58 0 22 10 26 26 10z
m15157 -69 c-5 -3 -45 -54 -91 -112 -45 -58 -94 -116 -109 -130 -16 -13 -23
-17 -16 -10 20 23 -2 53 -32 45 -29 -7 -32 4 -10 46 13 26 18 28 41 20 14 -6
28 -10 32 -10 4 0 34 34 67 76 33 42 69 79 80 84 22 8 52 1 38 -9z m-6496
-192 c-11 -7 -57 -16 -122 -24 -16 -3 -48 -7 -70 -10 -77 -12 -90 -14 -135
-19 -25 -3 -75 -7 -112 -10 -38 -3 -98 -9 -135 -12 l-66 -6 17 29 c38 60 27
58 344 58 160 0 286 -3 279 -6z m6233 -78 c0 -12 -15 -28 -37 -40 -25 -13 -83
-15 -83 -3 0 14 43 50 65 54 23 5 55 -1 55 -11z m136 -75 c-8 -39 -72 -105
-140 -140 -27 -14 -51 -25 -52 -23 -2 2 34 37 80 79 46 42 89 91 96 109 16 37
25 23 16 -25z m-10923 33 c41 -22 50 -64 19 -92 -18 -16 -18 -15 -14 13 3 22
0 30 -11 30 -9 0 -18 -4 -22 -10 -9 -14 -33 -1 -41 22 -4 13 0 24 13 33 22 18
29 18 56 4z m10670 -141 c-21 -45 -73 -108 -102 -123 l-30 -15 24 65 c14 36
25 67 25 70 0 2 7 2 15 -1 8 -4 24 5 37 19 27 30 47 20 31 -15z m41 -116 c-6
-4 -25 -29 -44 -57 -49 -74 -71 -95 -99 -95 -25 0 -25 0 10 38 20 20 46 51 58
67 22 30 56 54 76 54 6 1 6 -2 -1 -7z m-14399 -88 c12 -26 14 -39 6 -47 -18
-18 -43 -17 -72 3 -31 23 -46 70 -20 63 9 -2 25 3 36 11 24 18 28 15 50 -30z
m13673 -431 c-35 -30 -48 -44 -48 -55 0 -18 26 -5 56 27 17 19 37 35 43 35 21
0 11 -26 -21 -57 -33 -31 -48 -38 -100 -47 l-28 -5 21 42 c29 58 58 87 87 87
23 0 22 -1 -10 -27z m-248 -202 c0 -17 -98 -96 -162 -130 l-63 -34 46 54 c59
69 124 119 155 119 13 0 24 -4 24 -9z m3 -129 c-6 -25 -54 -52 -91 -52 -82 0
-15 66 70 69 21 1 25 -3 21 -17z m-11852 -90 c18 -16 30 -35 28 -46 -4 -15
-10 -13 -51 14 -25 17 -49 37 -52 45 -10 26 41 17 75 -13z m11597 -71 c1 -1
-7 -10 -19 -22 -14 -14 -19 -28 -15 -45 6 -23 5 -24 -49 -24 -30 0 -55 4 -55
10 0 5 22 27 50 49 41 33 61 40 88 32z m-9153 -161 c-3 -5 -11 -10 -16 -10 -6
0 -7 5 -4 10 3 6 11 10 16 10 6 0 7 -4 4 -10z m-2645 -154 c77 -22 91 -34 70
-66 -7 -12 -17 -9 -57 19 -26 19 -54 41 -60 49 -19 23 -16 37 5 20 9 -9 28
-19 42 -22z m5325 -165 c-11 -19 -59 -38 -92 -36 -51 3 -155 27 -145 34 19 12
245 13 237 2z m-4482 -142 c7 -5 27 -19 45 -29 34 -21 42 -50 18 -69 -11 -10
-22 -4 -55 27 -23 22 -41 48 -41 60 0 24 14 28 33 11z m4066 -854 c24 -24 -1
-40 -64 -39 -54 1 -106 27 -88 45 23 22 128 18 152 -6z"/>
<path d="M11046 10493 c5 -29 3 -32 -13 -27 -13 5 -11 2 5 -11 31 -23 35 -16
17 31 -14 36 -15 37 -9 7z"/>
<path d="M14033 7159 c-14 -5 -23 -17 -23 -29 0 -17 6 -20 33 -18 18 1 38 -2
45 -6 14 -9 16 8 2 33 -13 24 -30 30 -57 20z"/>
<path d="M13785 7110 c-3 -4 1 -10 8 -13 6 -3 28 -12 47 -20 25 -11 42 -12 60
-5 l25 9 -28 15 c-32 17 -104 26 -112 14z"/>
<path d="M13952 7098 c-30 -30 12 -78 68 -78 17 0 19 4 14 26 -5 19 -4 25 5
20 22 -14 10 12 -13 27 -18 12 -26 13 -35 4 -9 -9 -14 -9 -19 1 -6 9 -11 9
-20 0z"/>
<path d="M13497 6930 c-19 -27 -13 -46 16 -54 54 -14 62 3 23 48 l-23 28 -16
-22z"/>
<path d="M13593 6813 c-21 -7 -15 -23 8 -23 11 0 29 -5 39 -10 40 -22 150 -15
150 9 0 4 -12 8 -27 9 -16 1 -39 5 -53 8 -35 8 -103 12 -117 7z"/>
<path d="M13460 6571 c-6 -12 -16 -19 -21 -15 -6 3 -3 -8 5 -25 19 -36 45 -41
47 -8 3 55 -13 81 -31 48z"/>
<path d="M12761 5205 c-24 -19 -48 -32 -54 -28 -6 3 -7 1 -3 -5 4 -7 15 -12
25 -12 18 0 101 59 101 72 0 16 -26 6 -69 -27z"/>
<path d="M12631 5120 c-36 -8 -36 -25 1 -27 17 -1 35 -6 40 -11 13 -13 58 -2
58 13 0 22 -55 36 -99 25z"/>
<path d="M5133 4476 c-13 -13 -23 -30 -23 -38 0 -21 28 -55 58 -70 15 -8 39
-22 54 -32 l27 -18 -26 65 c-14 36 -35 77 -47 91 l-21 26 -22 -24z"/>
<path d="M5462 4411 c-18 -11 -5 -19 89 -64 43 -20 86 -46 98 -58 28 -31 36
-18 22 34 -11 37 -16 43 -43 45 -16 1 -46 11 -66 21 -49 24 -84 32 -100 22z"/>
<path d="M9030 20702 c-14 -2 -35 -13 -48 -25 -12 -11 -53 -28 -90 -38 -42
-10 -68 -22 -70 -32 -6 -28 38 -30 134 -6 87 21 94 24 100 51 3 17 15 33 27
38 12 5 20 10 17 11 -11 4 -46 5 -70 1z"/>
<path d="M8709 20640 c-7 -5 -17 -6 -21 -4 -4 3 -8 0 -8 -6 0 -8 14 -10 40 -7
37 4 66 16 44 18 -5 0 -16 2 -25 4 -9 1 -22 -1 -30 -5z"/>
<path d="M12808 20601 c-10 -10 -18 -22 -18 -28 0 -10 100 -25 109 -17 9 9
-36 57 -54 60 -11 1 -28 -6 -37 -15z"/>
<path d="M12930 20577 c0 -10 12 -19 28 -23 32 -8 45 -24 31 -40 -7 -9 -5 -12
8 -10 10 2 49 -5 87 -16 38 -10 75 -18 83 -16 18 4 -107 97 -139 104 -74 17
-98 17 -98 1z"/>
<path d="M9179 20565 c-8 -8 -48 -28 -89 -45 -41 -17 -81 -34 -88 -37 -7 -3
-12 -2 -11 3 1 5 1 16 0 24 -1 12 -4 12 -12 -3 -18 -31 -1 -40 64 -33 65 6
132 38 154 73 17 25 3 39 -18 18z"/>
<path d="M8857 20518 c-33 -9 -37 -13 -30 -32 4 -11 8 -33 8 -49 3 -44 11 -42
50 12 20 28 41 51 46 51 5 0 9 7 9 15 0 17 -26 18 -83 3z"/>
<path d="M13267 20494 l17 -27 -32 5 c-18 2 -32 3 -32 1 0 -5 102 -50 180 -79
35 -14 84 -36 107 -49 40 -22 43 -22 43 -5 0 10 -10 26 -22 34 -21 15 -21 16
-3 36 10 11 16 22 14 25 -3 2 -34 6 -71 9 -49 3 -84 14 -137 40 -39 20 -73 36
-76 36 -3 0 2 -12 12 -26z"/>
<path d="M8702 20454 c-17 -7 -53 -30 -80 -51 l-49 -39 20 -25 19 -24 -31 -3
c-26 -3 -35 -11 -52 -47 -24 -50 -45 -62 -70 -39 -21 19 -79 13 -100 -12 -11
-13 -16 -71 -6 -80 2 -2 24 7 49 21 43 24 81 32 156 34 32 1 33 2 27 31 -4 19
-3 30 5 30 6 0 30 9 52 20 23 11 43 20 44 20 1 0 0 -14 -1 -30 -2 -22 4 -36
22 -50 26 -21 23 -40 -6 -40 -25 0 -42 -22 -31 -39 6 -11 22 -3 70 35 l62 49
-31 8 c-29 7 -33 14 -33 57 0 3 3 23 7 44 6 36 5 39 -10 26 -19 -16 -97 -21
-106 -7 -25 36 46 80 138 86 18 1 5 28 -16 34 -10 2 -32 -1 -49 -9z"/>
<path d="M8324 20449 c-17 -5 -39 -18 -49 -29 -17 -19 -17 -20 1 -26 54 -17
63 -23 59 -45 -4 -20 -3 -19 22 5 24 25 84 48 159 62 19 3 34 10 34 14 0 19
-172 33 -226 19z"/>
<path d="M9258 20360 c-47 -8 -67 -25 -61 -51 8 -28 22 -34 37 -13 10 12 29
18 71 20 55 3 86 16 72 30 -12 12 -82 20 -119 14z"/>
<path d="M9027 20354 c-3 -3 -90 -13 -119 -13 -16 -1 -28 -5 -28 -11 0 -16 53
-38 80 -33 62 11 160 45 160 55 0 7 -85 9 -93 2z"/>
<path d="M9017 20269 c-90 -21 -257 -132 -289 -193 -27 -50 123 14 190 81 18
18 94 70 145 99 36 20 39 24 17 23 -14 -1 -42 -5 -63 -10z"/>
<path d="M11341 20271 c-16 -10 12 -20 142 -50 48 -12 97 -26 108 -32 31 -16
21 19 -12 43 -48 36 -203 61 -238 39z"/>
<path d="M8277 20241 c-19 -23 -37 -68 -37 -93 0 -15 -4 -18 -17 -13 -58 24
-81 14 -43 -20 31 -28 60 -12 117 65 29 38 49 71 45 71 -35 7 -53 4 -65 -10z"/>
<path d="M7735 20232 c-116 -40 -193 -108 -176 -155 14 -36 33 -33 29 4 -3 31
-1 34 32 40 19 3 69 22 111 43 48 23 97 39 133 43 54 6 56 7 40 24 -22 25
-100 25 -169 1z"/>
<path d="M6545 19891 c-3 -6 -26 -20 -50 -32 -46 -23 -45 -39 1 -39 24 0 114
55 114 70 0 13 -57 13 -65 1z"/>
<path d="M13197 19698 c-14 -14 -16 -23 -7 -33 12 -14 67 -25 88 -18 19 8 14
40 -10 57 -29 21 -49 19 -71 -6z"/>
<path d="M16470 19020 c0 -5 7 -10 16 -10 8 0 12 5 9 10 -3 6 -10 10 -16 10
-5 0 -9 -4 -9 -10z"/>
<path d="M17336 18349 c5 -9 33 -43 61 -76 77 -88 93 -109 93 -127 0 -15 26
-45 65 -76 11 -8 5 4 -13 26 -33 43 -40 68 -22 79 7 4 2 15 -12 27 -25 21 -66
58 -137 123 -24 22 -40 33 -35 24z"/>
<path d="M19902 6773 c-62 -80 -122 -183 -107 -183 9 0 24 15 34 33 11 17 29
41 40 52 18 18 76 135 67 135 -3 0 -17 -17 -34 -37z"/>
<path d="M19766 6471 c-16 -17 -41 -36 -57 -43 l-28 -14 21 -33 c19 -30 22
-31 32 -14 16 29 65 133 62 133 -1 0 -15 -13 -30 -29z"/>
<path d="M19622 6398 c-7 -7 -12 -17 -12 -23 0 -6 -7 -21 -16 -33 -12 -17 -19
-20 -29 -12 -10 8 -12 1 -8 -35 4 -34 0 -57 -19 -97 -40 -85 -43 -97 -18 -91
32 8 50 42 85 161 18 59 36 115 40 125 8 20 -5 23 -23 5z"/>
<path d="M19670 6250 c-6 -11 -8 -20 -6 -20 3 0 10 9 16 20 6 11 8 20 6 20 -3
0 -10 -9 -16 -20z"/>
<path d="M19540 6015 c-7 -8 -27 -17 -46 -21 -22 -4 -34 -12 -35 -23 -3 -89
-16 -131 -40 -131 -14 0 -10 42 5 73 14 25 14 27 -4 17 -45 -24 -79 -109 -95
-235 -3 -27 -9 -61 -12 -75 -3 -14 -3 -23 -1 -20 9 8 118 190 118 196 0 3 8
18 18 32 25 36 114 202 109 202 -3 0 -10 -7 -17 -15z"/>
<path d="M19166 5469 c-19 -23 -47 -71 -61 -108 -32 -79 -78 -154 -113 -181
-29 -23 -9 -28 32 -7 45 24 137 175 182 300 17 48 4 47 -40 -4z"/>
<path d="M19233 5495 c-9 -24 1 -27 15 -5 8 13 8 20 2 20 -6 0 -13 -7 -17 -15z"/>
<path d="M18854 4979 c-39 -9 -40 -11 -38 -47 1 -20 3 -46 3 -56 1 -14 8 -9
29 20 48 66 65 94 56 93 -5 -1 -27 -5 -50 -10z"/>
<path d="M18675 4838 c-11 -7 -31 -22 -45 -35 -14 -13 -28 -23 -33 -23 -4 0
-5 -4 -2 -10 9 -14 57 -12 75 3 19 14 50 58 50 69 0 11 -22 9 -45 -4z"/>
<path d="M18667 4696 c-3 -8 -2 -18 3 -21 13 -8 24 15 12 27 -6 6 -11 4 -15
-6z"/>
<path d="M18564 4548 c-28 -29 -63 -71 -79 -93 -16 -22 -32 -42 -35 -45 -6 -5
-94 -110 -120 -143 -8 -11 -20 -24 -25 -31 -6 -6 -40 -47 -76 -91 -73 -90
-103 -134 -43 -65 21 25 59 68 84 95 73 79 277 326 343 413 21 28 -2 9 -49
-40z"/>
<path d="M18114 4008 l-19 -23 23 19 c21 18 27 26 19 26 -2 0 -12 -10 -23 -22z"/>
<path d="M18025 3920 c-3 -6 1 -7 9 -4 18 7 21 14 7 14 -6 0 -13 -4 -16 -10z"/>
<path d="M4956 3885 c-8 -22 -10 -18 29 -65 19 -23 35 -46 35 -51 0 -5 -18 -6
-40 -3 l-40 7 6 -34 c16 -81 63 -137 193 -226 53 -37 124 -89 159 -116 58 -46
64 -48 76 -32 19 26 82 15 172 -30 125 -61 229 -159 243 -227 9 -45 32 -56 76
-35 35 17 36 17 45 -6 5 -12 16 -47 24 -78 20 -72 41 -93 51 -50 8 37 21 47
40 31 23 -19 59 -20 116 -4 30 8 73 17 95 20 38 5 42 4 48 -20 7 -30 42 -56
86 -62 29 -5 30 -4 24 20 -5 23 -3 26 20 26 14 0 46 -11 70 -25 l45 -25 -41
77 c-51 96 -75 132 -108 160 -38 34 -52 30 -44 -12 7 -38 6 -38 -56 -35 -50 2
-118 28 -173 67 -56 39 -78 37 -100 -10 -12 -24 -17 -28 -22 -16 -3 9 -39 40
-79 69 -83 61 -98 79 -105 134 -6 37 -8 39 -61 53 -30 8 -59 18 -64 23 -17 17
-35 11 -33 -10 1 -19 46 -40 84 -40 23 0 42 -30 37 -57 -3 -15 -6 -29 -8 -30
-3 -4 -90 60 -94 69 -2 5 -8 8 -12 8 -16 0 -233 160 -412 303 -94 75 -119 97
-219 194 -46 44 -57 51 -63 38z"/>
<path d="M17986 3879 c-15 -12 -25 -24 -22 -27 3 -3 18 7 32 21 32 32 27 35
-10 6z"/>
<path d="M17905 3803 c-22 -20 -116 -100 -210 -178 -186 -156 -220 -188 -280
-258 -23 -28 -84 -76 -145 -114 -178 -113 -213 -144 -229 -199 -12 -44 -162
-178 -376 -337 -49 -37 -94 -70 -100 -75 -5 -4 -86 -60 -180 -123 -269 -183
-309 -211 -320 -222 -17 -17 13 1 185 117 154 103 202 135 377 260 180 129
453 349 453 367 0 11 3 19 8 19 4 0 12 10 17 22 13 30 71 67 94 61 19 -5 89
52 291 236 140 127 477 461 465 460 -5 0 -28 -16 -50 -36z"/>
<path d="M17458 3643 c-14 -16 -33 -40 -43 -55 -17 -27 -17 -28 1 -28 21 1 40
16 93 73 l35 37 -30 0 c-20 0 -39 -9 -56 -27z"/>
<path d="M5290 3312 c0 -40 34 -70 60 -54 11 7 27 12 35 12 13 0 14 4 5 20
-12 22 -32 34 -72 44 -26 6 -28 4 -28 -22z"/>
<path d="M5325 3220 c-3 -5 -15 -10 -25 -10 -28 0 -15 -25 25 -50 17 -11 44
-31 58 -45 25 -26 29 -25 40 7 10 29 -83 123 -98 98z"/>
<path d="M8277 3223 c-17 -17 3 -26 108 -49 53 -12 130 -15 120 -5 -32 33
-208 75 -228 54z"/>
<path d="M5520 3161 c0 -11 46 -33 119 -56 29 -10 65 -23 79 -31 39 -20 41 -6
3 26 -26 23 -91 47 -103 39 -2 -1 -20 6 -42 15 -44 18 -56 20 -56 7z"/>
<path d="M16537 3093 c-11 -10 -8 -20 8 -37 14 -14 13 -17 -12 -30 -15 -8 -57
-43 -93 -77 -72 -69 -116 -99 -143 -99 -32 0 -12 -25 22 -28 45 -5 113 31 175
93 60 58 88 108 81 143 -7 38 -22 52 -38 35z"/>
<path d="M15927 2815 c-9 -20 -17 -44 -17 -53 0 -10 -9 -35 -19 -55 -16 -32
-17 -39 -5 -44 8 -3 26 2 40 12 24 15 25 21 22 80 -3 62 -2 64 19 59 12 -3 32
-3 44 1 l22 7 -24 14 c-41 23 -64 17 -82 -21z"/>
<path d="M4830 2759 c0 -15 5 -31 10 -34 16 -10 12 -23 -10 -30 -11 -3 -20 -9
-20 -13 0 -4 31 -22 70 -40 38 -19 84 -50 103 -70 18 -21 41 -43 51 -51 16
-13 17 -12 10 13 l-7 28 34 -17 c35 -17 31 -13 -173 179 -66 62 -68 63 -68 35z"/>
<path d="M15788 2728 c-30 -28 -67 -51 -102 -63 -31 -11 -56 -22 -56 -25 0 -3
8 -16 17 -30 13 -18 14 -25 4 -28 -7 -2 -28 -18 -47 -34 -19 -17 -35 -27 -35
-24 -8 39 -21 54 -50 60 -37 7 -37 17 1 39 26 16 28 21 19 38 -8 16 -13 18
-25 8 -8 -6 -14 -17 -14 -24 0 -8 -4 -15 -8 -17 -4 -1 -18 -20 -31 -40 l-23
-38 30 0 c42 0 58 -26 61 -104 1 -17 2 -17 19 2 9 11 34 25 55 31 32 8 38 7
48 -10 8 -17 5 -25 -23 -52 -19 -18 -49 -40 -68 -51 -35 -18 -35 -19 -12 -29
30 -14 65 11 114 84 44 63 44 66 18 74 -27 8 -25 28 3 40 14 7 23 20 25 40 5
52 23 87 41 79 38 -16 49 -14 79 11 34 29 41 59 19 89 -12 17 -17 15 -59 -26z"/>
<path d="M15403 2688 c-21 -18 -39 -36 -41 -39 -17 -34 -123 -184 -155 -217
l-42 -44 39 16 c93 39 211 172 255 289 15 38 -8 36 -56 -5z"/>
<path d="M6955 2568 c4 -13 8 -37 7 -54 0 -30 3 -33 46 -44 87 -22 110 -31
121 -44 16 -19 -6 -34 -61 -45 -54 -9 -103 6 -195 62 -32 20 -80 45 -107 57
l-48 20 44 -49 c25 -27 73 -105 108 -173 100 -196 174 -298 217 -298 25 0 111
-49 132 -76 12 -15 21 -41 21 -60 0 -39 10 -42 65 -18 34 14 39 14 62 -1 18
-12 24 -24 22 -48 -3 -49 9 -65 63 -83 53 -17 67 -37 60 -85 -7 -46 -63 -44
-170 7 -40 19 -77 34 -82 34 -5 0 -18 -10 -30 -22 -22 -23 -28 -22 -33 8 -1
10 -6 24 -10 30 -10 18 3 24 30 13 40 -15 53 -11 53 16 0 34 -39 59 -73 46
-14 -5 -28 -19 -32 -30 -3 -12 -10 -21 -14 -21 -15 0 -69 59 -86 92 -24 50
-91 118 -116 118 -33 0 19 -64 75 -92 l29 -15 -38 -38 -38 -38 39 -21 c21 -12
76 -58 121 -103 46 -45 83 -75 83 -67 0 32 59 38 180 17 56 -9 62 -10 127 -23
35 -7 101 -11 148 -8 69 4 90 8 106 25 l21 21 44 -25 44 -25 37 24 c32 20 51
23 128 23 73 1 99 5 138 24 27 12 88 32 135 43 187 42 247 59 280 80 l35 22
-52 16 c-45 15 -84 39 -101 62 -14 18 -162 63 -280 84 -14 3 -41 9 -60 14 -19
5 -51 11 -70 14 -19 3 -44 8 -55 10 -11 2 -78 16 -148 30 -280 58 -460 137
-573 250 -64 64 -97 116 -73 116 11 0 30 -20 82 -84 43 -53 70 -73 117 -86
l32 -9 -17 26 c-10 14 -37 70 -60 124 -23 54 -57 116 -74 138 -38 47 -27 59
28 31 51 -25 57 -25 65 2 7 29 0 35 -60 52 -27 7 -56 16 -64 20 -11 4 -15 -1
-17 -20 -2 -37 -17 -48 -62 -47 -57 1 -208 64 -226 94 -12 19 -27 9 -20 -13z"/>
<path d="M15903 2561 c-6 -18 -36 -47 -81 -77 -39 -27 -71 -52 -72 -56 0 -10
75 0 139 19 52 16 121 68 121 92 0 8 -13 11 -36 9 -29 -2 -38 2 -48 20 -12 22
-12 22 -23 -7z"/>
<path d="M5143 2516 c4 -10 26 -44 48 -77 30 -42 55 -65 92 -83 63 -32 78 -23
35 21 -26 27 -30 36 -18 43 11 7 8 11 -16 21 -16 8 -42 23 -59 35 -16 12 -43
30 -60 40 -28 18 -29 18 -22 0z"/>
<path d="M15299 2412 c-54 -34 -119 -86 -119 -94 0 -14 17 -9 111 37 51 25
100 45 108 45 13 1 12 3 -3 15 -26 19 -64 18 -97 -3z"/>
<path d="M9162 2392 c-16 -11 10 -35 59 -56 42 -17 60 -10 48 21 -13 37 -73
56 -107 35z"/>
<path d="M5374 2348 c3 -7 7 -25 10 -39 7 -33 28 -42 61 -27 26 12 42 38 22
38 -7 0 -30 9 -52 20 -46 24 -45 23 -41 8z"/>
<path d="M8395 2331 c5 -22 0 -35 -21 -60 l-27 -33 26 -24 c14 -13 30 -24 35
-24 7 0 32 98 32 127 0 14 -28 43 -42 43 -5 0 -7 -12 -3 -29z"/>
<path d="M15446 2332 c-9 -17 -16 -37 -16 -44 0 -7 -7 -26 -15 -41 -12 -24
-12 -29 0 -33 19 -8 110 52 94 61 -6 4 -19 26 -29 48 l-18 40 -16 -31z"/>
<path d="M15054 2341 c9 -15 -18 -37 -66 -55 -52 -19 -67 -34 -48 -46 30 -18
144 26 155 59 7 24 -9 51 -32 51 -8 0 -12 -4 -9 -9z"/>
<path d="M8135 2329 c-33 -4 -91 -10 -130 -14 -38 -4 -71 -8 -72 -9 -8 -7 223
-78 272 -84 85 -11 95 -7 95 33 0 65 -48 86 -165 74z"/>
<path d="M14576 2283 c-21 -11 -25 -17 -16 -23 7 -5 21 -3 31 3 22 14 32 6 23
-17 -17 -44 -120 -77 -199 -64 -14 2 -25 -8 -40 -34 -35 -65 -13 -66 128 -3
69 30 139 58 156 61 35 7 40 20 13 28 -11 4 -25 17 -32 31 -17 32 -30 36 -64
18z"/>
<path d="M15959 2246 c-35 -18 -107 -60 -159 -94 -52 -34 -128 -80 -167 -103
-40 -23 -71 -45 -68 -47 2 -3 10 0 17 5 7 6 38 24 68 40 92 50 183 103 230
133 25 16 54 34 65 40 49 26 99 60 89 60 -6 0 -40 -15 -75 -34z"/>
<path d="M15285 2223 c-45 -24 -77 -51 -97 -81 -19 -29 -24 -62 -9 -62 5 0 12
8 16 18 3 9 37 43 76 75 54 46 70 55 75 43 7 -18 24 -12 24 10 0 19 -47 18
-85 -3z"/>
<path d="M15636 2184 c-36 -20 -23 -35 37 -41 31 -3 47 0 56 11 34 41 -33 62
-93 30z"/>
<path d="M15480 2172 c-19 -11 -60 -34 -91 -53 -51 -32 -55 -37 -51 -68 2 -23
-2 -37 -14 -45 -15 -11 -11 -14 29 -25 55 -16 68 -9 60 29 -8 41 15 72 82 112
56 33 67 51 39 62 -20 8 -14 9 -54 -12z"/>
<path d="M14026 2058 c-17 -64 -23 -73 -45 -72 -21 1 -21 0 -4 -17 11 -11 44
-21 86 -27 l67 -9 -22 24 -23 24 25 19 25 19 -33 7 c-22 4 -31 12 -30 23 4 20
-40 29 -46 9z"/>
<path d="M15524 1984 c-18 -14 -18 -15 4 -4 12 6 22 13 22 15 0 8 -5 6 -26
-11z"/>
<path d="M13747 1973 c-16 -15 -5 -53 19 -72 32 -25 62 -27 71 -5 7 19 -15 36
-41 30 -14 -4 -17 0 -14 19 3 15 0 26 -9 29 -18 7 -18 7 -26 -1z"/>
<path d="M15434 1934 c-18 -14 -18 -14 6 -3 31 14 36 19 24 19 -6 0 -19 -7
-30 -16z"/>
<path d="M15212 1924 c-29 -7 -72 -27 -95 -43 -44 -30 -106 -91 -93 -91 12 0
67 30 115 65 25 18 65 42 89 54 23 12 42 24 42 26 0 3 -1 5 -2 4 -2 0 -27 -7
-56 -15z"/>
<path d="M15374 1904 c-18 -14 -18 -14 6 -3 31 14 36 19 24 19 -6 0 -19 -7
-30 -16z"/>
<path d="M15290 1882 c-16 -5 -40 -31 -40 -44 0 -5 18 1 40 12 22 11 40 22 40
24 0 8 -25 13 -40 8z"/>
<path d="M14245 1836 c-94 -65 -132 -86 -158 -88 -36 -3 -34 -15 3 -23 45 -10
91 10 187 81 86 63 87 64 53 64 -24 0 -52 -11 -85 -34z"/>
<path d="M13830 1769 c0 -7 8 -21 17 -31 22 -24 10 -33 -67 -49 -105 -21 -122
-40 -60 -67 27 -12 33 -11 62 9 83 58 111 116 68 139 -15 8 -20 8 -20 -1z"/>
<path d="M12999 1686 c-5 -5 -124 -16 -186 -18 -74 -1 -40 -37 39 -40 82 -4
222 31 203 50 -7 8 -50 14 -56 8z"/>
<path d="M13504 1655 c-12 -8 -49 -22 -84 -31 -63 -18 -120 -59 -120 -87 0
-26 60 1 74 32 16 39 46 30 46 -15 0 -37 6 -39 59 -20 l33 12 -27 12 -27 13
36 35 c20 19 36 41 36 49 0 18 -1 18 -26 0z"/>
<path d="M13592 1646 c-28 -11 -31 -14 -18 -25 8 -7 13 -22 10 -36 -2 -13 0
-26 4 -29 14 -9 74 60 70 80 -4 23 -23 26 -66 10z"/>
<path d="M12950 1551 c0 -5 -13 -12 -30 -16 -51 -11 -49 -31 3 -26 9 1 17 0
17 -2 0 -2 -31 -25 -68 -51 -70 -48 -108 -62 -126 -47 -7 6 -18 4 -29 -4 -17
-12 -17 -14 -2 -27 9 -7 24 -21 33 -30 15 -14 24 -15 67 -5 59 13 64 15 46 27
-12 7 -11 14 3 44 21 45 39 45 66 0 18 -28 28 -34 49 -32 35 4 36 39 1 49 -16
5 -8 6 25 5 59 -3 116 14 162 50 27 21 32 29 22 40 -18 22 -52 17 -89 -14
l-34 -29 -43 30 c-24 17 -43 34 -43 39 0 4 -7 8 -15 8 -8 0 -15 -4 -15 -9z"/>
<path d="M14370 1540 c6 -11 13 -20 16 -20 2 0 0 9 -6 20 -6 11 -13 20 -16 20
-2 0 0 -9 6 -20z"/>
<path d="M7805 1531 c-7 -12 40 -49 72 -57 36 -9 75 4 71 24 -3 13 -14 17 -52
17 -31 0 -51 5 -53 13 -5 14 -29 16 -38 3z"/>
<path d="M14510 1519 c-15 -27 -12 -28 29 -13 33 11 34 12 14 23 -29 15 -30
14 -43 -10z"/>
<path d="M10967 1523 c-10 -16 -18 -73 -11 -73 4 0 16 8 27 18 26 23 91 21
144 -6 52 -27 56 -27 43 -3 -5 11 -10 29 -10 40 0 18 -6 20 -47 19 -27 -1 -69
2 -94 6 -26 4 -49 4 -52 -1z"/>
<path d="M10261 1505 c-24 -7 -70 -15 -102 -18 -68 -5 -83 -12 -42 -21 78 -16
170 0 191 35 14 22 12 22 -47 4z"/>
<path d="M14355 1480 c-41 -43 -143 -90 -315 -146 -155 -50 -156 -51 -148 -60
8 -8 169 47 408 138 122 47 125 48 113 57 -5 3 -14 14 -19 24 -9 16 -13 14
-39 -13z"/>
<path d="M7990 1486 c0 -31 102 -80 149 -71 37 7 46 29 13 33 -15 2 -45 11
-67 21 -62 28 -95 34 -95 17z"/>
<path d="M12452 1465 c-34 -15 -35 -15 -54 -15 -6 0 -3 -9 7 -20 10 -11 31
-20 46 -20 27 0 95 47 84 58 -12 12 -51 11 -83 -3z"/>
<path d="M8340 1400 c0 -19 62 -55 115 -66 11 -2 34 -6 50 -10 28 -6 29 -5 14
11 -17 18 -179 77 -179 65z"/>
<path d="M12421 1368 c-58 -10 -61 -15 -18 -33 47 -19 90 -19 129 1 25 13 28
18 16 25 -23 13 -78 16 -127 7z"/>
<path d="M12115 1330 c-2 -3 5 -14 16 -23 11 -10 19 -29 19 -47 0 -30 0 -30
25 -14 28 18 57 12 85 -18 28 -31 50 -17 50 32 0 25 5 40 13 40 33 1 -26 19
-93 28 -82 12 -109 12 -115 2z"/>
<path d="M11853 1290 c3 -14 -3 -26 -20 -40 -15 -12 -23 -26 -19 -35 8 -23 25
-18 38 11 11 24 16 26 55 20 52 -7 58 12 14 43 -39 28 -75 28 -68 1z"/>
<path d="M11750 1281 c-5 -11 -10 -27 -10 -35 0 -22 -13 -20 -35 4 -29 33 -54
25 -75 -23 -10 -23 -31 -53 -45 -67 l-25 -24 27 -11 c25 -11 29 -9 40 11 7 12
37 34 67 49 64 31 74 41 82 83 7 36 -9 44 -26 13z"/>
<path d="M11980 1239 c-20 -17 -46 -29 -62 -29 -24 0 -28 -4 -28 -30 0 -29 21
-42 35 -21 11 19 71 42 137 53 53 10 65 15 56 25 -5 7 -14 11 -17 8 -4 -2 -22
-7 -40 -10 -25 -4 -33 -1 -39 14 -7 18 -9 17 -42 -10z"/>
<path d="M10770 1224 c-73 -17 -264 -90 -268 -102 -2 -6 11 -26 29 -47 l32
-36 29 30 c36 37 85 46 211 38 102 -6 127 -10 207 -34 30 -9 66 -15 79 -14 33
2 67 25 74 50 4 19 1 20 -37 15 -48 -6 -175 39 -143 52 28 10 103 -5 217 -46
59 -21 128 -41 153 -45 57 -9 125 1 152 21 17 13 18 16 5 24 -14 9 -45 7 -108
-5 -31 -6 -37 11 -9 30 21 13 43 18 122 25 32 3 -64 30 -135 37 -104 12 -243
6 -309 -13 -55 -15 -63 -15 -79 -2 -38 34 -132 43 -222 22z"/>
<path d="M9077 1223 c-34 -9 -65 -29 -59 -39 22 -29 41 -35 64 -20 13 8 39 18
58 21 41 7 41 7 32 22 -8 12 -68 22 -95 16z"/>
<path d="M10276 1134 c-18 -17 -22 -54 -6 -54 6 0 10 5 10 10 0 20 20 9 35
-20 18 -34 40 -41 30 -9 -10 29 10 39 52 27 24 -7 39 -6 46 1 8 8 6 11 -6 11
-41 0 -68 16 -61 35 9 22 -79 21 -100 -1z"/>
<path d="M8283 1113 c-15 -8 -39 -12 -53 -10 -24 5 -23 4 8 -24 20 -18 43 -29
62 -29 17 0 30 1 30 3 0 1 4 16 9 34 8 26 6 32 -9 36 -10 3 -31 -2 -47 -10z"/>
<path d="M12935 1019 c-101 -24 -176 -48 -155 -48 24 0 230 46 220 49 -19 6
-39 6 -65 -1z"/>
<path d="M12360 919 c-19 -10 -47 -18 -62 -19 -27 0 -50 -19 -26 -21 14 -1 16
-1 51 5 12 3 34 5 48 5 28 1 42 20 31 38 -5 8 -19 5 -42 -8z"/>
</g>
</svg>
